<?xml version="1.0" encoding="UTF-8" standalone="no"?>
<svg
   xmlns:dc="http://purl.org/dc/elements/1.1/"
   xmlns:cc="http://creativecommons.org/ns#"
   xmlns:rdf="http://www.w3.org/1999/02/22-rdf-syntax-ns#"
   xmlns:svg="http://www.w3.org/2000/svg"
   xmlns="http://www.w3.org/2000/svg"
   xmlns:sodipodi="http://sodipodi.sourceforge.net/DTD/sodipodi-0.dtd"
   xmlns:inkscape="http://www.inkscape.org/namespaces/inkscape"
   width="166.86687mm"
   height="131.3878mm"
   viewBox="0 0 166.86687 131.3878"
   version="1.1"
   id="svg8"
   sodipodi:docname="icon.svg"
   inkscape:version="1.0.2 (1.0.2+r75+1)"
   inkscape:export-filename="/home/yann/work/cortical-physio-icm/doc/icon.png"
   inkscape:export-xdpi="50"
   inkscape:export-ydpi="50">
  <defs
     id="defs2" />
  <sodipodi:namedview
     id="base"
     pagecolor="#ffffff"
     bordercolor="#666666"
     borderopacity="1.0"
     inkscape:pageopacity="0.0"
     inkscape:pageshadow="2"
     inkscape:zoom="0.7"
     inkscape:cx="-975.46775"
     inkscape:cy="-428.30784"
     inkscape:document-units="mm"
     inkscape:current-layer="layer1"
     inkscape:document-rotation="0"
     showgrid="false"
     inkscape:window-width="1920"
     inkscape:window-height="1020"
     inkscape:window-x="0"
     inkscape:window-y="0"
     inkscape:window-maximized="1"
     fit-margin-top="0"
     fit-margin-left="0"
     fit-margin-right="0"
     fit-margin-bottom="0" />
  <metadata
     id="metadata5">
    <rdf:RDF>
      <cc:Work
         rdf:about="">
        <dc:format>image/svg+xml</dc:format>
        <dc:type
           rdf:resource="http://purl.org/dc/dcmitype/StillImage" />
        <dc:title />
      </cc:Work>
    </rdf:RDF>
  </metadata>
  <g
     inkscape:label="Layer 1"
     inkscape:groupmode="layer"
     id="layer1"
     transform="translate(14.015071,-58.00222)">
    <path
       style="fill:#666666;fill-opacity:1;stroke-width:0.264583"
       d="m 116.67792,-43.744544 c -0.99443,-0.50662 -2.19699,-1.90265 -2.18479,-2.53628 0.004,-0.19691 3.46046,-2.21774 3.79348,-2.21774 0.0615,0 0.187,0.40038 0.2788,0.88972 0.25109,1.33844 0.96694,1.85289 2.35981,1.69589 0.63684,-0.0718 1.54782,-0.41502 2.02441,-0.76274 1.03455,-0.75483 3.44526,-4.08829 3.44526,-4.76401 0,-0.26229 -1.25016,-6.451 -2.77813,-13.75268 -1.52796,-7.30167 -2.77812,-13.44052 -2.77812,-13.64187 0,-0.30288 1.01345,-0.35381 5.86897,-0.29489 l 5.86898,0.0712 1.22945,7.60554 c 0.67621,4.18306 1.29761,7.6737 1.3809,7.75699 0.0833,0.0833 2.51469,-3.36694 5.40313,-7.66718 l 5.2517,-7.81861 1.93151,-0.005 1.93151,-0.004 -1.61933,2.31511 c -0.89063,1.27331 -5.68888,8.20203 -10.66277,15.39716 -4.97388,7.19514 -9.78052,13.86966 -10.68141,14.83225 -2.32651,2.48586 -3.8539,3.25586 -6.69639,3.37584 -1.89996,0.0802 -2.42246,0.007 -3.36697,-0.47466 z m -68.599702,-0.35023 c 0,-0.33526 7.52934,-33.62229 7.83367,-34.63244 0.12078,-0.40091 0.50087,-0.46393 2.83364,-0.46984 1.48178,-0.004 3.87593,-0.12174 5.32034,-0.26218 1.44441,-0.14044 2.66743,-0.21411 2.71783,-0.16371 0.0504,0.0504 -0.0878,0.85299 -0.30717,1.78353 -0.21935,0.93054 -0.40058,1.78256 -0.40273,1.89337 -0.002,0.11082 0.67867,-0.35449 1.51294,-1.034 2.46301,-2.00616 3.98296,-2.57291 6.94981,-2.5914 2.75989,-0.0172 3.87702,0.37085 5.40061,1.87597 2.64025,2.60824 2.99994,8.27288 0.93093,14.6609 -2.30781,7.12534 -6.53738,10.8492 -12.41695,10.93234 -2.86395,0.0405 -4.4571,-0.42641 -5.95554,-1.7454 -0.81796,-0.71999 -1.22612,-0.93558 -1.31105,-0.69247 -0.0678,0.19415 -0.54955,2.258 -1.07051,4.58634 -0.52096,2.32833 -1.06547,4.67982 -1.21004,5.22552 l -0.26284,0.99219 h -5.28147 c -4.26858,0 -5.28147,-0.0688 -5.28147,-0.35872 z m 17.9033,-11.88765 c 1.8463,-1.03529 3.7556,-5.76926 4.97011,-12.32297 0.49334,-2.66219 0.52681,-6.00688 0.0692,-6.91609 -0.46782,-0.9295 -1.88232,-1.02374 -3.1073,-0.207 -1.93579,1.29066 -4.28269,7.73583 -5.01828,13.78148 -0.29501,2.42455 -0.17799,3.79394 0.42629,4.98859 0.52414,1.03622 1.5518,1.29738 2.65997,0.67599 z m 89.252952,3.73702 c -6.45879,-0.4496 -9.79038,-3.1739 -9.14495,-7.47797 l 0.16823,-1.12184 2.65666,-0.46497 c 1.46116,-0.25575 2.71115,-0.4105 2.77775,-0.34389 0.0666,0.0666 0.0105,0.61331 -0.12468,1.21492 -0.52125,2.31991 0.49805,4.12912 3.00554,5.33471 1.28336,0.61704 4.47512,0.70292 5.7849,0.15565 1.19744,-0.50032 2.0203,-1.61978 2.0203,-2.74848 0,-1.16452 -1.18698,-2.35581 -3.36971,-3.38194 -4.78122,-2.24773 -6.02545,-2.93779 -7.19816,-3.99216 -1.83752,-1.65208 -2.50121,-3.13624 -2.334,-5.21932 0.16263,-2.02603 0.85217,-3.41787 2.49631,-5.03878 1.38013,-1.36064 4.61261,-3.10058 6.96598,-3.74957 0.80037,-0.22072 2.88396,-0.46794 4.63021,-0.54939 6.72292,-0.31357 10.34787,1.66991 10.5227,5.75775 l 0.0606,1.41779 -1.98438,0.3189 c -3.32124,0.53372 -3.17484,0.58761 -3.17599,-1.16926 -0.002,-2.99289 -1.41431,-4.16261 -5.02609,-4.16261 -2.57007,0 -3.70915,0.44573 -4.36115,1.70655 -0.95093,1.83892 -0.14595,3.0564 2.99372,4.52782 6.16541,2.88943 7.22721,3.48249 8.4825,4.73778 0.71652,0.71651 1.44773,1.74202 1.62491,2.2789 0.50274,1.52332 0.19164,3.95733 -0.74228,5.80741 -2.37846,4.7117 -7.97091,6.77165 -16.72895,6.162 z m 45.79935,-0.48377 c -3.5671,-0.96223 -5.64084,-2.70432 -6.51053,-5.46932 -0.62176,-1.9767 -0.41924,-6.54189 0.4089,-9.21778 2.54748,-8.23145 8.46112,-12.31454 17.81224,-12.29853 6.17051,0.0106 9.92216,1.76353 11.59838,5.41936 0.51981,1.13372 0.60166,1.72024 0.57226,4.10104 -0.0816,6.61023 -3.1936,12.71042 -7.90039,15.48659 -0.87312,0.51499 -2.54,1.24697 -3.70416,1.62661 -1.82802,0.59614 -2.67592,0.70322 -6.21771,0.78523 -3.47125,0.0804 -4.40172,0.0138 -6.05899,-0.4332 z m 7.77518,-2.41631 c 3.19925,-2.80897 6.82154,-18.02761 5.07665,-21.32894 -1.1418,-2.16027 -3.71674,-1.15198 -5.36507,2.10083 -2.25192,4.44396 -4.33951,14.62994 -3.69857,18.04645 0.39796,2.12133 2.2811,2.67946 3.98699,1.18166 z m -125.192702,1.81828 c 0.0777,-0.32742 1.88982,-8.27485 4.02692,-17.66095 2.137101,-9.38609 3.961671,-17.14115 4.054591,-17.23346 0.1627,-0.16162 10.642361,-0.84032 10.754231,-0.69648 0.0302,0.0388 -0.64034,3.10666 -1.49006,6.81744 -0.84971,3.71079 -1.547111,6.90523 -1.549761,7.09877 -0.003,0.19354 0.679781,-0.26096 1.516521,-1.00999 2.88949,-2.58661 6.6525,-3.88436 10.60052,-3.65582 3.74058,0.21654 5.35539,1.49708 5.3247,4.22245 -0.009,0.78477 -1.09924,6.12561 -2.44948,11.99772 l -2.43356,10.58334 -5.35573,0.0716 c -2.94564,0.0394 -5.35572,-0.0299 -5.35572,-0.1541 0,-0.12415 1.01745,-4.68074 2.26099,-10.12574 1.24355,-5.445 2.22581,-10.31458 2.18282,-10.82129 -0.0988,-1.16438 -1.03599,-1.59802 -2.31164,-1.06963 -1.99311,0.82557 -4.806161,4.69219 -5.779381,7.94392 -0.2831,0.94588 -1.1509,4.54753 -1.92844,8.00365 l -1.41372,6.28386 h -5.39754 -5.397541 z m 92.255672,0.31972 c 0,-0.43463 5.77003,-25.6219 5.92824,-25.87789 0.0758,-0.12264 2.07693,-0.29758 4.44697,-0.38877 2.37004,-0.0912 4.75565,-0.24425 5.30136,-0.34014 0.85945,-0.15103 0.99021,-0.10778 0.97745,0.32329 -0.008,0.2737 -1.35457,6.3317 -2.99214,13.46222 l -2.97741,12.96459 -5.34223,0.0716 c -3.70215,0.0496 -5.34224,-0.0164 -5.34224,-0.21492 z m 50.54211,0.20944 c 0.004,-0.0364 1.35316,-5.95974 2.99886,-13.16302 l 2.99218,-13.09688 1.96207,-0.0607 c 1.07914,-0.0334 3.49429,-0.18792 5.36699,-0.34335 1.8727,-0.15543 3.44698,-0.24053 3.4984,-0.18911 0.0514,0.0514 -0.14371,1.0866 -0.43362,2.30041 -0.28991,1.2138 -0.47539,2.25864 -0.41217,2.32185 0.0632,0.0632 0.78661,-0.43215 1.60755,-1.10081 3.12285,-2.5436 6.50429,-3.71505 10.1943,-3.53166 2.98676,0.14843 4.32699,0.8112 5.07924,2.51178 0.37635,0.85082 0.50177,1.57714 0.41973,2.43065 -0.0644,0.66948 -1.17913,5.89003 -2.47727,11.60122 l -2.36024,10.38397 -5.35781,8e-4 c -2.9468,5.3e-4 -5.35781,-0.0691 -5.35781,-0.15474 0,-0.0856 1.01203,-4.59603 2.24895,-10.02314 1.23693,-5.42711 2.24896,-10.22017 2.24896,-10.65125 0,-0.43107 -0.21773,-0.98082 -0.48385,-1.22165 -1.82117,-1.64801 -5.87856,1.86674 -7.28306,6.30912 -0.36429,1.15222 -3.61017,15.16499 -3.61017,15.58542 0,0.0865 -2.44078,0.15729 -5.42396,0.15729 -2.98318,0 -5.42095,-0.0298 -5.41727,-0.0662 z m -40.82118,-30.19245 c -1.52074,-0.56941 -1.78343,-0.89501 -1.78343,-2.21058 0,-2.2734 1.44557,-3.64928 4.25069,-4.04578 2.11488,-0.29893 4.36903,0.0712 5.20893,0.85524 0.55079,0.51418 0.62812,0.78431 0.52793,1.84416 -0.15009,1.58755 -0.72269,2.44672 -2.09839,3.14855 -1.41679,0.7228 -4.68266,0.94125 -6.10573,0.40841 z"
       id="path114"
       sodipodi:nodetypes="scsssssssscssscccsssssssscssscssssssssscsssssssssssscssssssssssssscsssssssssscsssssssscsssssssssscsscscssssssscccssssscscssscscssssssssssccssscssscsssssss" />
    <path
       style="fill:#cccccc;stroke:none;stroke-width:0.264583px;stroke-linecap:butt;stroke-linejoin:miter;stroke-opacity:1"
       d="m -2.8499974,-143.86907 -0.2793468,83.653849 118.1281642,-42.296399 9.49792,-71.24857 z"
       id="path118" />
    <ellipse
       style="fill:#ececec;stroke:none;stroke-width:0.170255"
       id="path120"
       transform="matrix(0.68414342,0.72934751,-0.6913856,0.72248595,0,0)"
       cx="-31.566034"
       cy="-158.82083"
       rx="14.758169"
       ry="19.847254" />
    <ellipse
       style="fill:#999999;stroke:none;stroke-width:0.152254"
       id="path122"
       cx="-27.056314"
       cy="-167.21828"
       rx="3.5552983"
       ry="21.021488"
       transform="matrix(0.86929495,0.49429374,-0.66930096,0.7429914,0,0)" />
    <ellipse
       style="fill:#999999;stroke:none;stroke-width:0.0822919"
       id="ellipse126"
       cx="-16.449636"
       cy="-162.19431"
       rx="2.7306299"
       ry="14.530126"
       transform="matrix(0.78567276,0.61864232,-0.66743526,0.74466783,0,0)" />
    <ellipse
       style="fill:#999999;stroke:none;stroke-width:0.0822919"
       id="ellipse128"
       cx="-35.917366"
       cy="-164.49707"
       rx="2.7306299"
       ry="14.530126"
       transform="matrix(0.78567276,0.61864232,-0.66743526,0.74466783,0,0)" />
    <path
       style="fill:#4d4d4d;fill-opacity:1;stroke-width:0.264583"
       d="m 62.069889,-98.152163 c -4.64182,-0.57767 -7.94127,-2.696107 -8.33996,-5.354767 -0.25334,-1.68937 -0.41843,-1.84011 -2.05991,-1.88082 -2.32726,-0.0577 -3.08476,-1.16445 -3.09645,-4.5241 -0.008,-2.19438 -0.17583,-2.37951 -2.17114,-2.38993 -0.91451,-0.005 -2.04106,-0.10163 -2.50345,-0.21524 -0.78226,-0.19221 -0.84663,-0.15525 -0.92604,0.53171 -0.125,1.08142 -1.04765,1.46689 -3.14413,1.31356 -0.95473,-0.0698 -1.86202,-0.0465 -2.0162,0.0519 -0.29615,0.18894 -1.62232,3.19785 -1.86074,4.22176 -0.16118,0.69222 -0.61547,0.97723 -1.93693,1.21521 -1.2911,0.2325 -2.03393,0.81581 -2.2413,1.75998 -0.38273,1.74252 -2.04045,2.89186 -4.9732,3.448037 -2.69711,0.5115 -4.41486,-0.683727 -4.41706,-3.073407 -0.001,-1.34632 -0.5033,-2.09694 -1.24508,-1.86151 -0.47255,0.14998 -1.07969,1.1304 -2.01408,3.25235 -0.28555,0.64848 -1.91938,1.40284 -3.03831,1.40284 -1.63296,0 -2.21089,-1.00347 -3.22078,-5.5923 -0.36104,-1.64054 -0.7435,-2.71469 -1.07265,-3.01257 -0.64417,-0.58296 -0.69486,-0.44176 -0.89119,2.48255 -0.25718,3.83071 -1.7547595,6.04186 -4.4179195,6.522947 -1.25414,0.22656 -3.00466,-0.265467 -3.59981,-1.011807 -0.69104,-0.86659 -1.69758,-1.50547 -2.37183,-1.50547 -0.4675,0 -0.57616,0.13911 -0.53644,0.68677 0.0325,0.44853 -0.15105,0.8231 -0.52919,1.07976 -0.55218,0.3748 -0.60522,0.3416 -1.14514,-0.71671 -0.54887,-1.07589 -0.55269,-1.15082 -0.12533,-2.45741 1.08431,-3.31507 2.36751,-4.90397 3.69199,-4.57155 0.83945,0.21069 1.17157,0.85156 1.49497,2.88472 0.14582,0.91675 0.54646,2.07402 0.90902,2.62572 0.35655,0.54259 0.64828,1.10813 0.64828,1.25677 0,0.34236 0.56279,0.34497 1.45239,0.007 1.03396,-0.39311 1.63538,-2.06829 2.1022,-5.85547 0.49018,-3.97678 1.04942,-5.85262 2.0401895,-6.8434 0.79807,-0.79806 2.01398,-1.23049 2.3933,-0.85117 0.24747,0.24747 1.53042,5.40846 2.31102,9.29665 0.45201,2.25145 0.87537,2.90073 1.68806,2.58887 0.93056,-0.35709 1.24514,-1.45827 1.89583,-6.63647 0.99784,-7.94083 1.15998,-8.32136 3.47089,-8.14612 1.11822,0.0848 1.63607,2.27419 1.98023,8.37211 0.13976,2.47615 0.38024,4.88866 0.53441,5.36114 0.34329,1.0521 1.15379,1.65564 2.21692,1.65085 1.64498,-0.007 1.94555,-0.23155 2.39811,-1.78833 1.19604,-4.11419 1.89603,-5.0872 3.6598,-5.0872 1.4133,0 2.02962,-0.70864 2.402,-2.76178 0.10394,-0.5731 0.53829,-1.73396 0.96521,-2.57969 0.66282,-1.31304 0.88197,-1.5371 1.50002,-1.53365 0.86327,0.005 1.25296,0.25045 1.25296,0.7897 0,0.26899 0.32567,0.42369 1.01064,0.4801 0.93706,0.0772 0.9901,0.0448 0.72855,-0.44386 -0.37341,-0.69773 -0.10402,-1.32783 0.64846,-1.51669 0.33522,-0.0841 1.03869,-0.63108 1.56328,-1.21543 l 0.9538,-1.06247 2.17785,0.18958 c 1.19781,0.10426 2.38216,0.29708 2.63188,0.42847 0.24971,0.13139 0.57987,0.74289 0.73368,1.35887 0.15381,0.61598 0.4171,1.3581 0.58508,1.64914 0.82954,1.43722 1.00219,1.93178 1.0037,2.8751 l 0.002,1.02301 1.67894,-0.1798 1.67894,-0.1798 0.67431,2.46408 c 0.37088,1.35524 0.82826,3.05395 1.01641,3.77489 0.19027,0.72906 0.71433,1.72717 1.1808,2.24895 0.46128,0.51597 1.04388,1.5632 1.29466,2.32719 0.43421,1.32277 0.49996,1.389047 1.37814,1.389047 1.05711,0 2.03406,-0.436737 1.80522,-0.807007 -0.18806,-0.30428 4.46899,-0.31293 6.2999,-0.0117 0.69555,0.11442 1.86159,0.11367 2.59121,-0.002 1.83326,-0.2898 4.22799,-1.42504 4.40091,-2.08628 0.18995,-0.72637 0.52241,-0.6876 4.35358,0.50764 4.36473,1.36171 4.92142,1.45282 6.04281,0.98909 0.50932,-0.21062 1.43206,-0.46627 2.05052,-0.5681 0.92855,-0.15289 1.12448,-0.11195 1.12448,0.23498 0,0.33383 0.30473,0.42013 1.48352,0.42013 1.17147,0 1.45325,-0.0789 1.33962,-0.37498 -0.14211,-0.37032 0.32334,-0.68335 1.01606,-0.68335 0.5929,0 1.21902,0.80799 1.04675,1.35079 -0.12639,0.39821 -0.0268,0.50128 0.4845,0.50128 1.06016,0 1.9356,-0.93927 3.04897,-3.27129 0.57998,-1.21479 1.236,-2.27835 1.45783,-2.36348 0.22184,-0.0851 0.44169,-0.48922 0.48857,-0.898 0.0772,-0.67342 0.19423,-0.75104 1.245651,-0.82635 0.63823,-0.0457 1.27661,0.0331 1.41862,0.17508 0.14201,0.14201 0.296,0.9385 0.34221,1.76998 0.0761,1.36877 0.18392,1.60779 1.14013,2.52659 0.58086,0.55814 1.36406,1.09209 1.74044,1.18656 0.88646,0.22249 1.95704,-0.46844 2.31444,-1.49366 0.33056,-0.94823 0.48499,-0.95523 1.80494,-0.0817 0.82509,0.54602 1.22947,0.65481 1.91255,0.51458 0.47644,-0.0978 1.75594,-0.24516 2.84334,-0.32744 1.8675,-0.1413 1.95561,-0.12371 1.58957,0.31734 -0.35686,0.42998 -0.33534,0.45102 0.27187,0.26606 0.90329,-0.27517 1.82696,-1.16538 2.24543,-2.16411 0.19207,-0.4584 0.60178,-2.50093 0.91046,-4.53898 0.61173,-4.03899 1.12658,-5.87096 1.81873,-6.47153 0.65448,-0.56789 1.79283,-0.77839 2.1115,-0.39045 0.14826,0.18049 0.58611,2.35223 0.973,4.82609 0.77821,4.97608 1.06083,6.11603 1.69569,6.83954 0.23626,0.26925 0.6677,0.98362 0.95874,1.58749 0.69465,1.4413 1.85907,2.02303 4.05051,2.02357 0.96296,2.3e-4 1.60485,-0.10381 1.51704,-0.24589 -0.18137,-0.29347 0.15132,-0.53068 1.57232,-1.12107 0.58421,-0.24271 1.03151,-0.57295 0.99398,-0.73384 -0.0375,-0.1609 0.34796,-0.65796 0.85663,-1.10456 0.52767,-0.4633 1.06048,-1.26471 1.24066,-1.86609 0.17618,-0.58803 0.68801,-1.36679 1.15765,-1.7614 1.09336,-0.91866 1.35946,-1.46387 1.84802,-3.78639 0.22252,-1.05783 0.59818,-2.13725 0.83479,-2.3987 0.51349,-0.5674 1.22613,-0.61466 1.64569,-0.10912 0.24669,0.29725 1.08202,4.16603 1.08339,5.0177 2e-4,0.12351 0.35642,0.55719 0.79161,0.96371 0.43519,0.40653 0.9412,1.1962 1.12448,1.75483 0.25147,0.76646 0.61422,1.17062 1.47845,1.64722 0.62986,0.34735 1.66258,1.17146 2.29491,1.83137 1.09893,1.14681 1.18429,1.18548 1.93256,0.87554 1.07351,-0.44466 2.04054,-1.54224 2.42891,-2.75681 0.2396,-0.7493 0.627,-1.19832 1.47663,-1.71152 1.10116,-0.66512 1.45668,-1.1509 2.36084,-3.22579 0.22194,-0.50933 0.63339,-1.28323 0.91433,-1.71979 0.28093,-0.43657 0.8355,-1.86532 1.23236,-3.175 l 0.72156,-2.38125 0.19618,-26.19373 c 0.1349,-18.00532 0.29274,-26.72432 0.50496,-27.89086 0.34195,-1.87961 1.00403,-3.72689 1.33574,-3.72689 0.7759,0 1.09538,8.65402 1.19933,32.48686 0.0529,12.11969 0.16711,22.15071 0.2539,22.29113 0.33472,0.54158 0.94774,0.21358 1.37716,-0.73686 0.24656,-0.54571 0.62028,-1.20055 0.83048,-1.45521 0.53341,-0.64622 1.72546,-0.57717 2.56949,0.14883 0.64499,0.55479 0.73169,0.8533 0.92976,3.20073 0.12014,1.42388 0.35704,2.75589 0.52645,2.96002 0.16941,0.20412 0.6804,0.3723 1.13552,0.37372 1.58918,0.005 5.19313,2.14021 5.19313,3.07678 0,0.7403 0.80676,1.94772 1.3014,1.94772 0.54019,0 0.81526,-0.49322 0.81526,-1.46184 0,-1.94062 3.86562,-1.8791 4.85447,0.0773 0.36105,0.71431 1.53887,5.28549 1.89064,7.33769 0.22934,1.33795 0.50622,1.66635 1.57373,1.86662 1.95057,0.36592 4.56519,-1.09438 4.31382,-2.40933 -0.14324,-0.7493 0.0656,-0.7892 1.81944,-0.34759 0.80687,0.20317 1.27956,0.21344 1.46123,0.0318 0.1477,-0.1477 0.65654,-2.07337 1.13075,-4.27928 0.47421,-2.2059 0.99805,-4.14659 1.1641,-4.31264 0.36077,-0.36077 5.85132,-1.51482 7.24866,-1.52358 1.13525,-0.007 1.37511,-0.32614 1.64524,-2.18828 0.22983,-1.58423 0.59786,-1.78662 3.24874,-1.78662 2.14953,0 3.25127,-0.41047 3.25127,-1.2113 0,-0.21315 0.29278,-0.52095 0.65062,-0.68399 0.98549,-0.44902 1.87505,0.24387 2.09727,1.63358 0.21284,1.33097 1.17644,2.28831 3.52973,3.50678 1.96992,1.01997 2.10335,1.30229 2.4678,5.22158 0.64361,6.92134 0.92801,8.09643 2.02622,8.37206 1.34509,0.33759 2.42073,-1.60489 3.21819,-5.81168 0.61314,-3.23454 1.09928,-4.41399 2.20165,-5.34158 0.9979,-0.83967 2.45144,-0.88449 3.28512,-0.10128 0.57288,0.53819 0.67064,0.54519 2.88029,0.20619 l 2.28729,-0.3509 0.91651,-1.98368 c 0.50408,-1.09102 0.98712,-2.26497 1.07341,-2.6088 0.21295,-0.84844 0.661,-0.96489 1.99831,-0.51938 0.92438,0.30794 1.15807,0.51977 1.2681,1.14943 0.12256,0.70133 0.23143,0.77192 1.19063,0.77192 0.97381,0 1.07868,-0.0718 1.35155,-0.92604 0.3646,-1.14133 1.55536,-1.9451 1.95985,-1.32291 0.5104,0.78509 0.80932,2.43056 1.04784,5.76795 0.5704,7.98098 1.95233,11.93882 3.94748,11.30558 0.56756,-0.18012 0.49128,0.2904 1.74567,-10.76797 0.96269,-8.48677 1.15268,-9.27076 2.32067,-9.57619 0.68946,-0.1803 1.67436,0.40574 1.90543,1.13378 0.0913,0.28769 0.56231,0.76799 1.04666,1.06734 1.55669,0.96209 2.20632,3.30298 3.87621,13.96793 0.58994,3.76776 0.59081,3.7703 1.30061,3.7703 0.39066,0 1.29477,-0.17731 2.00911,-0.39401 1.80274,-0.54688 2.67672,-0.50941 3.01861,0.12942 0.5402,1.00935 3.43958,0.43978 3.43958,-0.67569 0,-0.20962 0.4005,-0.82793 0.88998,-1.37405 1.17801,-1.31428 1.50498,-2.01415 2.6415,-5.6541 0.98007,-3.13892 1.58747,-4.16658 1.93201,-3.26873 0.23783,0.61981 -0.29721,4.52069 -0.97502,7.10851 -0.68418,2.61208 -1.36093,3.95228 -2.37394,4.70123 -0.43538,0.32189 -0.79161,0.72981 -0.79161,0.90649 0,0.53441 -1.54572,0.90217 -3.79188,0.90217 -1.16898,0 -3.18211,0.1355 -4.47365,0.30114 -2.80305,0.35947 -3.37865,0.15556 -4.14642,-1.46892 -0.28107,-0.59465 -0.71837,-2.37307 -0.97182,-3.95205 -0.32287,-2.01151 -0.6459,-3.14363 -1.07914,-3.78205 -0.34786,-0.5126 -0.61834,-1.30429 -0.61834,-1.80985 0,-1.08028 -0.25828,-1.28439 -1.18122,-0.93349 -0.82773,0.3147 -1.40753,1.5621 -1.77922,3.82783 -0.80883,4.93033 -0.97484,5.50871 -1.83629,6.39749 -1.56197,1.61154 -3.43005,2.09575 -4.98439,1.29198 -1.25456,-0.64876 -2.07197,-2.70584 -3.55004,-8.93403 -0.095,-0.40018 -0.2781,-0.72761 -0.40696,-0.72761 -0.12886,0 -0.5959,0.64075 -1.03787,1.42388 -1.17612,2.08396 -2.80207,3.16356 -3.37308,2.23967 -0.10374,-0.16786 -0.27797,-1.28551 -0.38718,-2.48365 -0.24465,-2.68415 -0.57368,-3.42471 -1.33952,-3.01484 -0.29643,0.15864 -0.65556,0.62291 -0.79807,1.03171 -0.26007,0.74604 -1.01372,1.06782 -2.50097,1.06782 -0.66408,0 -1.16686,0.67934 -1.16686,1.57665 0,0.49597 -0.8502,1.06918 -1.58582,1.06918 -0.53421,0 -1.06001,-0.90182 -1.06001,-1.81807 0,-1.11687 -0.37425,-1.62151 -1.20254,-1.62151 -0.88745,0 -1.36102,0.78486 -1.55492,2.57703 -0.22805,2.10774 -0.54097,3.01901 -1.67906,4.88973 -1.0483,1.72313 -2.46559,2.59099 -4.56,2.79223 -2.30908,0.22187 -2.94378,-0.67314 -3.5525,-5.0095 -0.45632,-3.25073 -0.70099,-3.97599 -1.74081,-5.16028 -0.42753,-0.48693 -0.96765,-1.54003 -1.20027,-2.34022 -0.23929,-0.82312 -0.63693,-1.56942 -0.9157,-1.71862 -0.66553,-0.35618 -2.6442,-0.3372 -2.6442,0.0254 0,0.19118 -0.47037,0.2388 -1.38906,0.14061 -3.36902,-0.36009 -3.17628,-0.39888 -3.78151,0.76095 -0.30374,0.58208 -0.9579,1.33215 -1.45368,1.66681 -0.49578,0.33467 -0.97444,0.72663 -1.06369,0.87104 -0.10713,0.17334 -0.55917,0.17106 -1.33039,-0.007 -1.9165,-0.44176 -1.94576,-0.42538 -2.61209,1.46208 -0.6525,1.84828 -1.65597,3.28281 -2.29636,3.28281 -0.56621,0 -1.62457,1.2454 -1.82191,2.1439 -0.21097,0.96051 -1.26215,2.24365 -2.26135,2.76036 -0.41201,0.21306 -1.38009,0.38879 -2.1513,0.39052 -0.77121,0.002 -2.05705,0.17891 -2.85741,0.39373 -1.94689,0.52256 -3.16361,0.49636 -4.55017,-0.098 -1.4568,-0.62447 -1.75519,-1.27068 -2.05629,-4.45314 -0.14809,-1.56533 -0.40541,-2.75572 -0.68934,-3.18907 l -0.45305,-0.69144 -0.60654,0.70514 c -0.35765,0.41579 -0.67399,1.22288 -0.77093,1.96687 -0.3826,2.93648 -0.71433,3.84626 -1.78521,4.89593 -0.83982,0.82319 -1.21065,1.00967 -1.8786,0.94467 -1.06018,-0.10317 -1.37383,-0.75055 -1.70568,-3.52055 -0.32313,-2.69718 -0.85378,-3.94984 -1.95858,-4.62342 -0.4817,-0.29368 -0.71996,-0.53441 -0.52947,-0.53495 0.69615,-0.002 0.0104,-0.50097 -1.2755,-0.92807 -0.72589,-0.24112 -1.31981,-0.60001 -1.31981,-0.79756 0,-0.19754 -0.53919,-0.74639 -1.19821,-1.21966 -0.68124,-0.48923 -1.26958,-1.15271 -1.36365,-1.53779 -0.21789,-0.892 -0.52203,-1.06528 -1.87821,-1.07013 -0.76567,-0.003 -1.18214,0.12457 -1.28508,0.39282 -0.0838,0.21828 -0.47025,0.39688 -0.85887,0.39688 -1.10222,0 -1.79139,0.64605 -1.98575,1.8615 -0.18991,1.18765 -1.75824,5.25005 -2.41207,6.24791 -0.22492,0.34327 -0.85074,0.83214 -1.39073,1.0864 -0.56176,0.26452 -1.01998,0.68851 -1.07105,0.99104 -0.0491,0.29081 -0.75441,1.15383 -1.56738,1.9178 l -1.47811,1.38907 h -2.19087 c -1.20498,0 -2.2549,-0.1036 -2.33316,-0.23021 -0.0783,-0.12663 -0.85105,-0.49529 -1.71732,-0.81926 -0.96611,-0.3613 -1.52736,-0.71325 -1.45173,-0.91033 0.0756,-0.19701 -0.51962,-0.57101 -1.53848,-0.9667 -1.44139,-0.55977 -1.68058,-0.75063 -1.80356,-1.43911 -0.12571,-0.70373 -0.24052,-0.78908 -1.01249,-0.75262 -0.88769,0.0419 -1.97575,1.05549 -3.32708,3.0993 -1.18487,1.79207 -5.62591,3.190357 -9.62997,3.03206 -2.14544,-0.0848 -2.22595,-0.11197 -3.07348,-1.03679 -0.47868,-0.52233 -1.07981,-1.5939 -1.33584,-2.38124 -0.56044,-1.72347 -1.57105,-3.15132 -2.23045,-3.15132 -0.37577,0 -0.51881,0.28034 -0.65083,1.27557 -0.25757,1.9416 -1.41073,3.54607 -3.16577,4.40472 -1.60069,0.78314 -2.61044,0.75356 -3.87694,-0.11359 -1.18069,-0.80839 -1.26841,-0.81593 -2.03066,-0.17454 -1.04134,0.87623 -2.47812,1.219187 -5.11484,1.220907 -2.82059,0.002 -3.73947,-0.260547 -5.04607,-1.440977 -1.13762,-1.02777 -2.270821,-1.23999 -2.540541,-0.47577 -0.34843,0.98725 -1.31995,1.69219 -3.06084,2.220967 -1.47564,0.44822 -2.16022,0.51466 -3.71579,0.36063 -1.04879,-0.10384 -3.64827,-0.16474 -5.77662,-0.13533 -3.54557,0.049 -4.04124,-0.004 -5.91708,-0.634147 -1.12604,-0.3782 -2.2496,-0.68764 -2.49678,-0.68764 -0.24719,0 -1.51357,0.36037 -2.81417,0.800827 -4.51882,1.5303 -9.68476,2.25335 -13.08036,1.83077 z m -17.75933,-15.306027 c 0.51356,-0.32529 0.12475,-0.81928 -0.64482,-0.81928 -0.46946,0 -0.64585,0.14452 -0.64585,0.52916 0,0.56016 0.63793,0.70356 1.29067,0.29012 z"
       id="path130"
       sodipodi:nodetypes="cssccsssssssscssssssssssssssssscssssssssscsssscssssscssssccccssssssscsssssssssssssssssssssssssssssssssssssssssssssssssssscsssssssssssssssssssssscsssssssssssscsssssssssssssssssssssssssssssssssssssssssssssssssssssssssscsssscsssscssssssssssscssssssscsssssssssssssssscssssssssccssss" />
    <path
       style="fill:#cccccc;stroke:none;stroke-width:0.224233px;stroke-linecap:butt;stroke-linejoin:miter;stroke-opacity:1"
       d="m -360.26423,-146.85864 -0.24962,67.239818 105.5573,-33.997268 8.48718,-57.26863 z"
       id="path132" />
    <path
       style="fill:#4d4d4d;fill-opacity:1;stroke-width:1;stroke-miterlimit:4;stroke-dasharray:none;stroke:#4d4d4d"
       d="m -333.29512,-56.54839 c -2.29824,-0.57767 -3.93185,-2.696107 -4.12925,-5.354767 -0.12543,-1.68937 -0.20717,-1.84011 -1.01989,-1.88082 -1.15226,-0.0577 -1.52731,-1.16445 -1.5331,-4.5241 -0.004,-2.19438 -0.0871,-2.37951 -1.07497,-2.38993 -0.45279,-0.005 -1.01056,-0.10163 -1.23949,-0.21524 -0.38731,-0.19221 -0.41918,-0.15525 -0.4585,0.53171 -0.0619,1.08142 -0.51871,1.46689 -1.55671,1.31356 -0.47271,-0.0698 -0.92192,-0.0465 -0.99826,0.0519 -0.14662,0.18894 -0.80323,3.19785 -0.92128,4.22176 -0.0798,0.69222 -0.30473,0.97723 -0.959,1.21521 -0.63925,0.2325 -1.00703,0.81581 -1.1097,1.75998 -0.1895,1.74252 -1.01026,2.89186 -2.46232,3.448037 -1.33538,0.5115 -2.18586,-0.683727 -2.18695,-3.073407 -5e-4,-1.34632 -0.2492,-2.09694 -0.61646,-1.86151 -0.23397,0.14998 -0.53457,1.1304 -0.9972,3.25235 -0.14138,0.64848 -0.95032,1.40284 -1.50432,1.40284 -0.8085,0 -1.09465,-1.00347 -1.59466,-5.5923 -0.17875,-1.64054 -0.36812,-2.71469 -0.53108,-3.01257 -0.31894,-0.58296 -0.34404,-0.44176 -0.44125,2.48255 -0.12733,3.83071 -0.86881,6.04186 -2.18738,6.522947 -0.62095,0.22656 -1.48766,-0.265467 -1.78232,-1.011807 -0.34215,-0.86659 -0.8405,-1.50547 -1.17433,-1.50547 -0.23147,0 -0.28527,0.13911 -0.2656,0.68677 0.0161,0.44853 -0.0748,0.8231 -0.26201,1.07976 -0.2734,0.3748 -0.29966,0.3416 -0.56698,-0.71671 -0.27175,-1.07589 -0.27365,-1.15082 -0.062,-2.45741 0.53686,-3.31507 1.17219,-4.90397 1.82796,-4.57155 0.41562,0.21069 0.58006,0.85156 0.74018,2.88472 0.0722,0.91675 0.27056,2.07402 0.45007,2.62572 0.17653,0.54259 0.32097,1.10813 0.32097,1.25677 0,0.34236 0.27865,0.34497 0.71911,0.007 0.51193,-0.39311 0.8097,-2.06829 1.04083,-5.85547 0.24269,-3.97678 0.51958,-5.85262 1.01013,-6.8434 0.39514,-0.79806 0.99716,-1.23049 1.18496,-0.85117 0.12253,0.24747 0.75774,5.40846 1.14423,9.29665 0.22379,2.25145 0.4334,2.90073 0.83578,2.58887 0.46073,-0.35709 0.61649,-1.45827 0.93865,-6.63647 0.49405,-7.94083 0.57433,-8.32136 1.7185,-8.14612 0.55364,0.0848 0.81004,2.27419 0.98044,8.37211 0.0692,2.47615 0.18826,4.88866 0.26459,5.36114 0.16997,1.0521 0.57126,1.65564 1.09764,1.65085 0.81446,-0.007 0.96327,-0.23155 1.18734,-1.78833 0.59218,-4.11419 0.93876,-5.0872 1.81203,-5.0872 0.69974,0 1.00489,-0.70864 1.18926,-2.76178 0.0515,-0.5731 0.26652,-1.73396 0.4779,-2.57969 0.32817,-1.31304 0.43667,-1.5371 0.74268,-1.53365 0.42742,0.005 0.62036,0.25045 0.62036,0.7897 0,0.26899 0.16124,0.42369 0.50038,0.4801 0.46396,0.0772 0.49022,0.0448 0.36072,-0.44386 -0.18488,-0.69773 -0.0515,-1.32783 0.32106,-1.51669 0.16597,-0.0841 0.51427,-0.63108 0.77401,-1.21543 l 0.47224,-1.06247 1.07829,0.18958 c 0.59305,0.10426 1.17944,0.29708 1.30308,0.42847 0.12364,0.13139 0.28711,0.74289 0.36326,1.35887 0.0761,0.61598 0.20651,1.3581 0.28968,1.64914 0.41072,1.43722 0.4962,1.93178 0.49695,2.8751 l 9.9e-4,1.02301 0.83127,-0.1798 0.83127,-0.1798 0.33386,2.46408 c 0.18363,1.35524 0.41009,3.05395 0.50324,3.77489 0.0942,0.72906 0.35368,1.72717 0.58463,2.24895 0.22839,0.51597 0.51685,1.5632 0.64101,2.32719 0.21498,1.32277 0.24754,1.389047 0.68234,1.389047 0.52339,0 1.00709,-0.436737 0.89379,-0.807007 -0.0931,-0.30428 2.21267,-0.31293 3.11919,-0.0117 0.34437,0.11442 0.9217,0.11367 1.28294,-0.002 0.90768,-0.2898 2.09335,-1.42504 2.17896,-2.08628 0.094,-0.72637 0.25866,-0.6876 2.15553,0.50764 2.16105,1.36171 2.43668,1.45282 2.99189,0.98909 0.25218,-0.21062 0.70904,-0.46627 1.01525,-0.5681 0.45974,-0.15289 0.55675,-0.11195 0.55675,0.23498 0,0.33383 0.15087,0.42013 0.73451,0.42013 0.58001,0 0.71953,-0.0789 0.66327,-0.37498 -0.0704,-0.37032 0.16009,-0.68335 0.50306,-0.68335 0.29356,0 0.60356,0.80799 0.51827,1.35079 -0.0626,0.39821 -0.0133,0.50128 0.23988,0.50128 0.5249,0 0.95835,-0.93927 1.5096,-3.27129 0.28715,-1.21479 0.61196,-2.27835 0.72179,-2.36348 0.10984,-0.0851 0.21869,-0.48922 0.2419,-0.898 0.0382,-0.67342 0.0962,-0.75104 0.61674,-0.82635 0.316,-0.0457 0.63207,0.0331 0.70238,0.17508 0.0703,0.14201 0.14656,0.9385 0.16943,1.76998 0.0377,1.36877 0.0911,1.60779 0.5645,2.52659 0.28759,0.55814 0.67537,1.09209 0.86172,1.18656 0.4389,0.22249 0.96896,-0.46844 1.14592,-1.49366 0.16366,-0.94823 0.24012,-0.95523 0.89365,-0.0817 0.40851,0.54602 0.60873,0.65481 0.94693,0.51458 0.2359,-0.0978 0.8694,-0.24516 1.40778,-0.32744 0.92463,-0.1413 0.96826,-0.12371 0.78703,0.31734 -0.17669,0.42998 -0.16604,0.45102 0.1346,0.26606 0.44724,-0.27517 0.90456,-1.16538 1.11175,-2.16411 0.0951,-0.4584 0.29795,-2.50093 0.45078,-4.53898 0.30288,-4.03899 0.55779,-5.87096 0.90048,-6.47153 0.32405,-0.56789 0.88766,-0.77839 1.04544,-0.39045 0.0734,0.18049 0.29019,2.35223 0.48175,4.82609 0.3853,4.97608 0.52523,6.11603 0.83956,6.83954 0.11698,0.26925 0.33059,0.98362 0.47469,1.58749 0.34393,1.4413 0.92045,2.02303 2.00547,2.02357 0.47678,2.3e-4 0.79459,-0.10381 0.75111,-0.24589 -0.0898,-0.29347 0.0749,-0.53068 0.77848,-1.12107 0.28925,-0.24271 0.51072,-0.57295 0.49213,-0.73384 -0.0186,-0.1609 0.17228,-0.65796 0.42414,-1.10456 0.26125,-0.4633 0.52506,-1.26471 0.61427,-1.86609 0.0872,-0.58803 0.34064,-1.36679 0.57317,-1.7614 0.54134,-0.91866 0.67309,-1.46387 0.91498,-3.78639 0.11017,-1.05783 0.29617,-2.13725 0.41332,-2.3987 0.25423,-0.5674 0.60707,-0.61466 0.8148,-0.10912 0.12214,0.29725 0.53573,4.16603 0.53641,5.0177 1e-4,0.12351 0.17647,0.55719 0.39194,0.96371 0.21547,0.40653 0.466,1.1962 0.55674,1.75483 0.12451,0.76646 0.30411,1.17062 0.73201,1.64722 0.31185,0.34735 0.82317,1.17146 1.13624,1.83137 0.5441,1.14681 0.58636,1.18548 0.95684,0.87554 0.53151,-0.44466 1.01031,-1.54224 1.20259,-2.75681 0.11863,-0.7493 0.31044,-1.19832 0.73111,-1.71152 0.5452,-0.66512 0.72122,-1.1509 1.16889,-3.22579 0.10988,-0.50933 0.3136,-1.28323 0.45269,-1.71979 0.1391,-0.43657 0.41367,-1.86532 0.61017,-3.175 l 0.35725,-2.38125 0.0971,-26.193733 c 0.0668,-18.00532 0.14494,-26.72432 0.25002,-27.89086 0.1693,-1.87961 0.49711,-3.72689 0.66134,-3.72689 0.38416,0 0.54234,8.65402 0.59381,32.48686 0.0262,12.119693 0.0827,22.150713 0.12571,22.291133 0.16572,0.54158 0.46924,0.21358 0.68185,-0.73686 0.12208,-0.54571 0.30711,-1.20055 0.41119,-1.45521 0.2641,-0.64622 0.8543,-0.57717 1.27219,0.14883 0.31935,0.55479 0.36227,0.8533 0.46034,3.20073 0.0595,1.42388 0.17678,2.75589 0.26065,2.96002 0.0839,0.20412 0.33688,0.3723 0.56222,0.37372 0.78682,0.005 2.5712,2.14021 2.5712,3.07678 0,0.7403 0.39944,1.94772 0.64434,1.94772 0.26746,0 0.40365,-0.49322 0.40365,-1.46184 0,-1.94062 1.91393,-1.8791 2.40352,0.0773 0.17876,0.71431 0.76192,5.28549 0.93609,7.33769 0.11355,1.33795 0.25063,1.66635 0.77918,1.86662 0.96575,0.36592 2.26029,-1.09438 2.13584,-2.40933 -0.0709,-0.7493 0.0325,-0.7892 0.90083,-0.34759 0.39949,0.20317 0.63353,0.21344 0.72348,0.0318 0.0731,-0.1477 0.32506,-2.07337 0.55985,-4.27928 0.23479,-2.2059 0.49415,-4.14659 0.57636,-4.31264 0.17863,-0.36077 2.89708,-1.51482 3.58893,-1.52358 0.56208,-0.007 0.68084,-0.32614 0.81458,-2.18828 0.11379,-1.58423 0.29601,-1.78662 1.6085,-1.78662 1.06427,0 1.60976,-0.41047 1.60976,-1.2113 0,-0.21315 0.14496,-0.52095 0.32213,-0.68399 0.48793,-0.44902 0.92837,0.24387 1.03839,1.63358 0.10538,1.33097 0.58247,2.28831 1.74763,3.50678 0.97533,1.01997 1.0414,1.30229 1.22184,5.22158 0.31866,6.92134 0.45947,8.09643 1.00321,8.37206 0.66598,0.33759 1.19855,-1.60489 1.59338,-5.81168 0.30358,-3.23454 0.54427,-4.41399 1.09007,-5.34158 0.49408,-0.83967 1.21375,-0.88449 1.62652,-0.10128 0.28364,0.53819 0.33204,0.54519 1.42607,0.20619 l 1.13248,-0.3509 0.45377,-1.98368 c 0.24958,-1.09102 0.48874,-2.26497 0.53147,-2.6088 0.10543,-0.84844 0.32727,-0.96489 0.98939,-0.51938 0.45768,0.30794 0.57338,0.51977 0.62786,1.14943 0.0607,0.70133 0.11458,0.77192 0.5895,0.77192 0.48214,0 0.53407,-0.0718 0.66917,-0.92604 0.18052,-1.14133 0.77008,-1.9451 0.97035,-1.32291 0.25271,0.78509 0.40071,2.43056 0.5188,5.76795 0.28242,7.98098 0.96663,11.93882 1.95446,11.30558 0.28101,-0.18012 0.24324,0.2904 0.86431,-10.76797 0.47664,-8.48677 0.57071,-9.27076 1.149,-9.57619 0.34136,-0.1803 0.829,0.40574 0.94341,1.13378 0.0452,0.28769 0.27841,0.76799 0.51822,1.06734 0.77074,0.96209 1.09238,3.30298 1.91917,13.96793 0.29209,3.76776 0.29252,3.7703 0.64395,3.7703 0.19342,0 0.64106,-0.17731 0.99474,-0.39401 0.89257,-0.54688 1.32529,-0.50941 1.49456,0.12942 0.26746,1.00935 1.70299,0.43978 1.70299,-0.67569 0,-0.20962 0.19829,-0.82793 0.44064,-1.37405 0.58325,-1.31428 0.74514,-2.01415 1.30785,-5.6541 0.48525,-3.13892 0.78598,-4.16658 0.95657,-3.26873 0.11775,0.61981 -0.14716,4.52069 -0.48275,7.10851 -0.33875,2.61208 -0.67382,3.95228 -1.17537,4.70123 -0.21557,0.32189 -0.39194,0.72981 -0.39194,0.90649 0,0.53441 -0.76531,0.90217 -1.87742,0.90217 -0.57878,0 -1.57551,0.1355 -2.21497,0.30114 -1.38783,0.35947 -1.67282,0.15556 -2.05296,-1.46892 -0.13916,-0.59465 -0.35567,-2.37307 -0.48116,-3.95205 -0.15986,-2.01151 -0.3198,-3.14363 -0.5343,-3.78205 -0.17223,-0.5126 -0.30615,-1.30429 -0.30615,-1.80985 0,-1.08028 -0.12788,-1.28439 -0.58484,-0.93349 -0.40982,0.3147 -0.69689,1.5621 -0.88092,3.82783 -0.40046,4.93033 -0.48266,5.50871 -0.90918,6.39749 -0.77335,1.61154 -1.69827,2.09575 -2.46785,1.29198 -0.62115,-0.64876 -1.02586,-2.70584 -1.75768,-8.93403 -0.047,-0.40018 -0.13769,-0.72761 -0.20149,-0.72761 -0.0638,0 -0.29504,0.64075 -0.51386,1.42388 -0.58232,2.08396 -1.38735,3.16356 -1.67007,2.23967 -0.0514,-0.16786 -0.13763,-1.28551 -0.1917,-2.48365 -0.12113,-2.68415 -0.28403,-3.42471 -0.66321,-3.01484 -0.14677,0.15864 -0.32458,0.62291 -0.39514,1.03171 -0.12877,0.74604 -0.50191,1.06782 -1.23827,1.06782 -0.3288,0 -0.57773,0.67934 -0.57773,1.57665 0,0.49597 -0.42095,1.06918 -0.78517,1.06918 -0.26449,0 -0.52482,-0.90182 -0.52482,-1.81807 0,-1.11687 -0.1853,-1.62151 -0.5954,-1.62151 -0.43939,0 -0.67386,0.78486 -0.76986,2.57703 -0.11292,2.10774 -0.26785,3.01901 -0.83133,4.88973 -0.51903,1.72313 -1.22075,2.59099 -2.25773,2.79223 -1.14326,0.22187 -1.45751,-0.67314 -1.7589,-5.0095 -0.22593,-3.25073 -0.34707,-3.97599 -0.8619,-5.16028 -0.21168,-0.48693 -0.4791,-1.54003 -0.59427,-2.34022 -0.11848,-0.82312 -0.31536,-1.56942 -0.45338,-1.71862 -0.32951,-0.35618 -1.30918,-0.3372 -1.30918,0.0254 0,0.19118 -0.23289,0.2388 -0.68775,0.14061 -1.66805,-0.36009 -1.57263,-0.39888 -1.87228,0.76095 -0.15039,0.58208 -0.47428,1.33215 -0.71974,1.66681 -0.24547,0.33467 -0.48247,0.72663 -0.52665,0.87104 -0.053,0.17334 -0.27686,0.17106 -0.6587,-0.007 -0.94889,-0.44176 -0.96338,-0.42538 -1.29329,1.46208 -0.32306,1.84828 -0.81989,3.28281 -1.13696,3.28281 -0.28034,0 -0.80435,1.2454 -0.90206,2.1439 -0.10445,0.96051 -0.62491,2.24365 -1.11963,2.76036 -0.20399,0.21306 -0.6833,0.38879 -1.06514,0.39052 -0.38184,0.002 -1.01848,0.17891 -1.41475,0.39373 -0.96393,0.52256 -1.56635,0.49636 -2.25286,-0.098 -0.72128,-0.62447 -0.86902,-1.27068 -1.0181,-4.45314 -0.0733,-1.56533 -0.20072,-2.75572 -0.3413,-3.18907 l -0.22431,-0.69144 -0.30031,0.70514 c -0.17708,0.41579 -0.3337,1.22288 -0.3817,1.96687 -0.18943,2.93648 -0.35368,3.84626 -0.88389,4.89593 -0.4158,0.82319 -0.59941,1.00967 -0.93012,0.94467 -0.52491,-0.10317 -0.68021,-0.75055 -0.84451,-3.52055 -0.15999,-2.69718 -0.42272,-3.94984 -0.96972,-4.62342 -0.2385,-0.29368 -0.35647,-0.53441 -0.26215,-0.53495 0.34467,-0.002 0.005,-0.50097 -0.63152,-0.92807 -0.3594,-0.24112 -0.65346,-0.60001 -0.65346,-0.79756 0,-0.19754 -0.26696,-0.74639 -0.59325,-1.21966 -0.3373,-0.48923 -0.62859,-1.15271 -0.67517,-1.53779 -0.10788,-0.892 -0.25846,-1.06528 -0.92993,-1.07013 -0.37909,-0.003 -0.58529,0.12457 -0.63626,0.39282 -0.0415,0.21828 -0.23283,0.39688 -0.42524,0.39688 -0.54573,0 -0.88695,0.64605 -0.98318,1.8615 -0.094,1.18765 -0.87053,5.25005 -1.19425,6.24791 -0.11136,0.34327 -0.42122,0.83214 -0.68857,1.0864 -0.27814,0.26452 -0.50501,0.68851 -0.5303,0.99104 -0.0243,0.29081 -0.37352,1.15383 -0.77603,1.9178 l -0.73184,1.38907 h -1.08473 c -0.5966,0 -1.11644,-0.1036 -1.15518,-0.23021 -0.0388,-0.12663 -0.42137,-0.49529 -0.85028,-0.81926 -0.47833,-0.3613 -0.75622,-0.71325 -0.71877,-0.91033 0.0374,-0.19701 -0.25727,-0.57101 -0.76173,-0.9667 -0.71365,-0.55977 -0.83208,-0.75063 -0.89297,-1.43911 -0.0622,-0.70373 -0.11908,-0.78908 -0.5013,-0.75262 -0.4395,0.0419 -0.97822,1.05549 -1.64729,3.0993 -0.58664,1.79207 -2.78547,3.190357 -4.76794,3.03206 -1.06224,-0.0848 -1.10211,-0.11197 -1.52173,-1.03679 -0.237,-0.52233 -0.53463,-1.5939 -0.6614,-2.38124 -0.27748,-1.72347 -0.77785,-3.15132 -1.10433,-3.15132 -0.18605,0 -0.25687,0.28034 -0.32223,1.27557 -0.12753,1.9416 -0.69848,3.54607 -1.56743,4.40472 -0.79252,0.78314 -1.29247,0.75356 -1.91953,-0.11359 -0.58458,-0.80839 -0.62801,-0.81593 -1.00541,-0.17454 -0.51558,0.87623 -1.22696,1.219187 -2.53244,1.220907 -1.39652,0.002 -1.85147,-0.260547 -2.49839,-1.440977 -0.56325,-1.02777 -1.12431,-1.23999 -1.25786,-0.47577 -0.17251,0.98725 -0.65352,1.69219 -1.51547,2.220967 -0.73061,0.44822 -1.06956,0.51466 -1.83975,0.36063 -0.51927,-0.10384 -1.80631,-0.16474 -2.86009,-0.13533 -1.75547,0.049 -2.00088,-0.004 -2.92964,-0.634147 -0.55753,-0.3782 -1.11382,-0.68764 -1.2362,-0.68764 -0.12239,0 -0.74939,0.36037 -1.39334,0.800827 -2.23734,1.5303 -4.79508,2.25335 -6.4763,1.83077 z m -8.79292,-15.306027 c 0.25427,-0.32529 0.0618,-0.81928 -0.31926,-0.81928 -0.23244,0 -0.31978,0.14452 -0.31978,0.52916 0,0.56016 0.31585,0.70356 0.63904,0.29012 z"
       id="path134"
       sodipodi:nodetypes="cssccsssssssscssssssssssssssssscssssssssscsssscssssscssssccccssssssscsssssssssssssssssssssssssssssssssssssssssssssssssssscsssssssssssssssssssssscsssssssssssscsssssssssssssssssssssssssssssssssssssssssssssssssssssssssscsssscsssscssssssssssscssssssscsssssssssssssssscssssssssccssss" />
    <ellipse
       style="fill:#ececec;stroke:none;stroke-width:0.136298"
       id="ellipse959"
       transform="matrix(0.71092199,0.70327087,-0.71791131,0.69613458,0,0)"
       cx="-314.76767"
       cy="138.93056"
       rx="11.810295"
       ry="15.894725" />
    <ellipse
       style="fill:#999999;stroke:none;stroke-width:0.123043"
       id="ellipse961"
       cx="-332.16217"
       cy="42.468452"
       rx="2.9058883"
       ry="16.797174"
       transform="matrix(0.8844379,0.46665791,-0.69654912,0.71750911,0,0)" />
    <ellipse
       style="fill:#999999;stroke:none;stroke-width:0.0661639"
       id="ellipse963"
       cx="-314.33121"
       cy="91.822403"
       rx="2.2095287"
       ry="11.608086"
       transform="matrix(0.80743577,0.58995549,-0.69473785,0.71926304,0,0)" />
    <ellipse
       style="fill:#999999;stroke:none;stroke-width:0.0661639"
       id="ellipse965"
       cx="-330.08377"
       cy="89.982712"
       rx="2.2095287"
       ry="11.608086"
       transform="matrix(0.80743577,0.58995549,-0.69473785,0.71926304,0,0)" />
  </g>
</svg>
