<?xml version="1.0" encoding="UTF-8" standalone="no"?>
<svg
   xmlns:dc="http://purl.org/dc/elements/1.1/"
   xmlns:cc="http://creativecommons.org/ns#"
   xmlns:rdf="http://www.w3.org/1999/02/22-rdf-syntax-ns#"
   xmlns:svg="http://www.w3.org/2000/svg"
   xmlns="http://www.w3.org/2000/svg"
   xmlns:sodipodi="http://sodipodi.sourceforge.net/DTD/sodipodi-0.dtd"
   xmlns:inkscape="http://www.inkscape.org/namespaces/inkscape"
   width="107.49195mm"
   height="107.51834mm"
   viewBox="0 0 107.49195 107.51834"
   version="1.1"
   id="svg8"
   sodipodi:docname="icon.svg"
   inkscape:version="1.0.2 (1.0.2+r75+1)"
   inkscape:export-filename="/home/yann/work/cortical-physio-icm/doc/icon.png"
   inkscape:export-xdpi="50"
   inkscape:export-ydpi="50">
  <defs
     id="defs2" />
  <sodipodi:namedview
     id="base"
     pagecolor="#ffffff"
     bordercolor="#666666"
     borderopacity="1.0"
     inkscape:pageopacity="0.0"
     inkscape:pageshadow="2"
     inkscape:zoom="0.24748737"
     inkscape:cx="-357.6789"
     inkscape:cy="-457.25326"
     inkscape:document-units="mm"
     inkscape:current-layer="layer1"
     inkscape:document-rotation="0"
     showgrid="false"
     inkscape:window-width="1920"
     inkscape:window-height="1020"
     inkscape:window-x="0"
     inkscape:window-y="0"
     inkscape:window-maximized="1"
     fit-margin-top="0"
     fit-margin-left="0"
     fit-margin-right="0"
     fit-margin-bottom="0" />
  <metadata
     id="metadata5">
    <rdf:RDF>
      <cc:Work
         rdf:about="">
        <dc:format>image/svg+xml</dc:format>
        <dc:type
           rdf:resource="http://purl.org/dc/dcmitype/StillImage" />
        <dc:title></dc:title>
      </cc:Work>
    </rdf:RDF>
  </metadata>
  <g
     inkscape:label="Layer 1"
     inkscape:groupmode="layer"
     id="layer1"
     transform="translate(-17.919762,-65.660696)">
    <path
       style="fill:#666666;fill-opacity:1;stroke-width:0.264583"
       d="m 65.669439,33.246143 c -0.99443,-0.50662 -2.19699,-1.90265 -2.18479,-2.53628 0.004,-0.19691 3.46046,-2.21774 3.79348,-2.21774 0.0615,0 0.187,0.40038 0.2788,0.88972 0.25109,1.33844 0.96694,1.85289 2.35981,1.69589 0.63684,-0.0718 1.54782,-0.41502 2.02441,-0.76274 1.03455,-0.75483 3.44526,-4.08829 3.44526,-4.76401 0,-0.26229 -1.25016,-6.451 -2.77813,-13.75268 -1.52796,-7.3016699 -2.77812,-13.4405199 -2.77812,-13.6418699 0,-0.30288 1.01345,-0.35381 5.86897,-0.29489 l 5.86898,0.0712 1.22945,7.60554 c 0.67621,4.18306 1.29761,7.6736999 1.3809,7.7569899 0.0833,0.0833 2.51469,-3.3669399 5.40313,-7.6671799 l 5.2517,-7.81861 1.93151,-0.005 1.93151,-0.004 -1.61933,2.31510996 c -0.89063,1.27331004 -5.68888,8.20203004 -10.66277,15.39715994 -4.97388,7.19514 -9.78052,13.86966 -10.68141,14.83225 -2.32651,2.48586 -3.8539,3.25586 -6.69639,3.37584 -1.89996,0.0802 -2.42246,0.007 -3.36697,-0.47466 z m -68.5997016,-0.35023 c 0,-0.33526 7.52934,-33.62228994 7.83367,-34.6324399 0.12078,-0.40091 0.50087,-0.46393 2.83364,-0.46984 1.48178,-0.004 3.8759296,-0.12174 5.3203396,-0.26218 1.44441,-0.14044 2.66743,-0.21411 2.71783,-0.16371 0.0504,0.0504 -0.0878,0.85299 -0.30717,1.78352996 -0.21935,0.93054 -0.40058,1.78256 -0.40273,1.89337004 -0.002,0.11082 0.67867,-0.35449004 1.51294,-1.03400004 2.46301,-2.00615996 3.98296,-2.57290996 6.94981,-2.59139996 2.75989,-0.0172 3.87702,0.37085 5.40061,1.87596996 2.64025,2.60824004 2.99994,8.27288004 0.93093,14.66089994 -2.30781,7.12534 -6.53738,10.8492 -12.41695,10.93234 -2.86395,0.0405 -4.4571,-0.42641 -5.95554,-1.7454 -0.81796,-0.71999 -1.22612,-0.93558 -1.31105,-0.69247 -0.0678,0.19415 -0.5495496,2.258 -1.0705096,4.58634 -0.52096,2.32833 -1.06547,4.67982 -1.21004,5.22552 l -0.26284,0.99219 h -5.28147 c -4.26858,0 -5.28147,-0.0688 -5.28147,-0.35872 z M 14.973037,21.008263 c 1.8463,-1.03529 3.7556,-5.76926 4.97011,-12.3229699 0.49334,-2.66219 0.52681,-6.00688 0.0692,-6.91609 -0.46782,-0.92950004 -1.88232,-1.02374004 -3.1073,-0.207 -1.93579,1.29066 -4.28269,7.73583 -5.01828,13.7814799 -0.29501,2.42455 -0.17799,3.79394 0.42629,4.98859 0.52414,1.03622 1.5518,1.29738 2.65997,0.67599 z m 89.252953,3.73702 c -6.458791,-0.4496 -9.790381,-3.1739 -9.144951,-7.47797 l 0.16823,-1.12184 2.65666,-0.46497 c 1.46116,-0.25575 2.711151,-0.4105 2.777751,-0.34389 0.0666,0.0666 0.0105,0.61331 -0.12468,1.21492 -0.52125,2.31991 0.49805,4.12912 3.00554,5.33471 1.28336,0.61704 4.47512,0.70292 5.7849,0.15565 1.19744,-0.50032 2.0203,-1.61978 2.0203,-2.74848 0,-1.16452 -1.18698,-2.35581 -3.36971,-3.38194 -4.78122,-2.24773 -6.02545,-2.93779 -7.19816,-3.99216 -1.837521,-1.65208 -2.501211,-3.1362399 -2.334001,-5.2193199 0.16263,-2.02603 0.85217,-3.41787 2.496311,-5.03878 1.38013,-1.36064004 4.61261,-3.10058 6.96598,-3.74957 0.80037,-0.22072 2.88396,-0.46794 4.63021,-0.54939 6.72292,-0.31357 10.34787,1.66990996 10.5227,5.75775 l 0.0606,1.41779 -1.98438,0.3189 c -3.32124,0.53372 -3.17484,0.58761 -3.17599,-1.16926 -0.002,-2.99289004 -1.41431,-4.16261004 -5.02609,-4.16261004 -2.57007,0 -3.70915,0.44573 -4.36115,1.70655004 -0.95093,1.83892 -0.14595,3.0564 2.99372,4.52782 6.16541,2.88943 7.22721,3.48249 8.4825,4.7377799 0.71652,0.71651 1.44773,1.74202 1.62491,2.2789 0.50274,1.52332 0.19164,3.95733 -0.74228,5.80741 -2.37846,4.7117 -7.97091,6.77165 -16.72895,6.162 z m 45.79935,-0.48377 c -3.5671,-0.96223 -5.64084,-2.70432 -6.51053,-5.46932 -0.62176,-1.9767 -0.41924,-6.54189 0.4089,-9.2177799 2.54748,-8.23145 8.46112,-12.31454 17.81224,-12.29853 6.17051,0.0106 9.92216,1.76352996 11.59838,5.41936 0.51981,1.13372 0.60166,1.72024 0.57226,4.10104 -0.0816,6.6102299 -3.1936,12.7104199 -7.90039,15.4865899 -0.87312,0.51499 -2.54,1.24697 -3.70416,1.62661 -1.82802,0.59614 -2.67592,0.70322 -6.21771,0.78523 -3.47125,0.0804 -4.40172,0.0138 -6.05899,-0.4332 z m 7.77518,-2.41631 c 3.19925,-2.80897 6.82154,-18.0276099 5.07665,-21.32893994 -1.1418,-2.16026996 -3.71674,-1.15198 -5.36507,2.10083004 -2.25192,4.44396 -4.33951,14.6299399 -3.69857,18.0464499 0.39796,2.12133 2.2811,2.67946 3.98699,1.18166 z m -125.192703,1.81828 c 0.0777,-0.32742 1.88982,-8.27485 4.02692,-17.6609499 2.137101,-9.38609 3.961671,-17.1411501 4.054591,-17.2334601 0.1627,-0.16162 10.642361,-0.84032 10.754231,-0.69648 0.0302,0.0388 -0.64034,3.1066601 -1.49006,6.8174401 -0.84971,3.71079 -1.547111,6.90523 -1.549761,7.09877 -0.003,0.19354 0.679781,-0.26096 1.516521,-1.00999004 2.88949,-2.58660996 6.6525,-3.88435996 10.60052,-3.65581996 3.74058,0.21654 5.35539,1.49708 5.3247,4.22245 -0.009,0.78477 -1.09924,6.12561 -2.44948,11.9977199 l -2.43356,10.58334 -5.35573,0.0716 c -2.94564,0.0394 -5.35572,-0.0299 -5.35572,-0.1541 0,-0.12415 1.01745,-4.68074 2.26099,-10.12574 1.24355,-5.4449999 2.22581,-10.3145799 2.18282,-10.8212899 -0.0988,-1.16438 -1.03599,-1.59802 -2.31164,-1.06963 -1.99311,0.82557 -4.806161,4.69219 -5.779381,7.94392 -0.2831,0.9458799 -1.1509,4.5475299 -1.92844,8.0036499 l -1.41372,6.28386 h -5.39754 -5.397541 z m 92.255673,0.31972 c 0,-0.43463 5.77003,-25.6218999 5.92824,-25.8778899 0.0758,-0.12264 2.07693,-0.29758 4.44697,-0.38877 2.37004,-0.0912 4.75565,-0.24425 5.30136,-0.34014 0.85945,-0.15103 0.99021,-0.10778 0.97745,0.32329 -0.008,0.2737 -1.35457,6.3317 -2.99214,13.4622199 l -2.97741,12.96459 -5.34223,0.0716 c -3.70215,0.0496 -5.34224,-0.0164 -5.34224,-0.21492 z m 50.54211,0.20944 c 0.004,-0.0364 1.35316,-5.95974 2.99886,-13.16302 l 2.99218,-13.0968799 1.96207,-0.0607 c 1.07914,-0.0334 3.49429,-0.18792 5.36699,-0.34335 1.8727,-0.15543 3.44698,-0.24053 3.4984,-0.18911 0.0514,0.0514 -0.14371,1.0866 -0.43362,2.30040996 -0.28991,1.2138 -0.47539,2.25864004 -0.41217,2.32185004 0.0632,0.0632 0.78661,-0.43215 1.60755,-1.10081004 3.12285,-2.54359996 6.50429,-3.71504996 10.1943,-3.53165996 2.98676,0.14843 4.32699,0.8112 5.07924,2.51177996 0.37635,0.85082 0.50177,1.57714004 0.41973,2.43065004 -0.0644,0.66948 -1.17913,5.89003 -2.47727,11.6012199 l -2.36024,10.38397 -5.35781,8e-4 c -2.9468,5.3e-4 -5.35781,-0.0691 -5.35781,-0.15474 0,-0.0856 1.01203,-4.59603 2.24895,-10.02314 1.23693,-5.4271099 2.24896,-10.2201699 2.24896,-10.6512499 0,-0.43107 -0.21773,-0.98082 -0.48385,-1.22165 -1.82117,-1.64801004 -5.87856,1.86674 -7.28306,6.30912 -0.36429,1.15222 -3.61017,15.1649899 -3.61017,15.5854199 0,0.0865 -2.44078,0.15729 -5.42396,0.15729 -2.98318,0 -5.42095,-0.0298 -5.41727,-0.0662 z M 134.58442,-5.9998069 c -1.52074,-0.56941 -1.78343,-0.89501 -1.78343,-2.21058 0,-2.2734001 1.44557,-3.6492801 4.25069,-4.0457801 2.11488,-0.29893 4.36903,0.0712 5.20893,0.85524 0.55079,0.51418 0.62812,0.78431 0.52793,1.8441601 -0.15009,1.58755 -0.72269,2.44672 -2.09839,3.14855 -1.41679,0.7228 -4.68266,0.94125 -6.10573,0.40841 z"
       id="path114"
       sodipodi:nodetypes="scsssssssscssscccsssssssscssscssssssssscsssssssssssscssssssssssssscsssssssssscsssssssscsssssssssscsscscssssssscccssssscscssscscssssssssssccssscssscsssssss" />
    <path
       style="fill:#cccccc;stroke:none;stroke-width:0.264583px;stroke-linecap:butt;stroke-linejoin:miter;stroke-opacity:1"
       d="m -53.858478,-66.878383 -0.279347,83.653849 118.128164,-42.296399 9.49792,-71.24857 z"
       id="path118" />
    <ellipse
       style="fill:#ececec;stroke:none;stroke-width:0.170255"
       id="path120"
       transform="matrix(0.68414342,0.72934751,-0.6913856,0.72248595,0,0)"
       cx="-15.164819"
       cy="-68.814232"
       rx="14.758169"
       ry="19.847254" />
    <ellipse
       style="fill:#999999;stroke:none;stroke-width:0.152254"
       id="path122"
       cx="-13.100198"
       cy="-72.880356"
       rx="3.5552983"
       ry="21.021488"
       transform="matrix(0.86929495,0.49429374,-0.66930096,0.7429914,0,0)" />
    <ellipse
       style="fill:#999999;stroke:none;stroke-width:0.0822919"
       id="ellipse126"
       cx="-3.020436"
       cy="-69.961487"
       rx="2.7306299"
       ry="14.530126"
       transform="matrix(0.78567276,0.61864232,-0.66743526,0.74466783,0,0)" />
    <ellipse
       style="fill:#999999;stroke:none;stroke-width:0.0822919"
       id="ellipse128"
       cx="-22.488165"
       cy="-72.264252"
       rx="2.7306299"
       ry="14.530126"
       transform="matrix(0.78567276,0.61864232,-0.66743526,0.74466783,0,0)" />
    <path
       style="fill:#4d4d4d;fill-opacity:1;stroke-width:0.264583"
       d="m 11.061408,-21.161476 c -4.6418196,-0.57767 -7.9412696,-2.696107 -8.3399596,-5.354767 -0.25334,-1.68937 -0.41843,-1.84011 -2.05991002,-1.88082 -2.32725998,-0.0577 -3.08475998,-1.16445 -3.09644998,-4.5241 -0.008,-2.19438 -0.17583,-2.37951 -2.17114,-2.38993 -0.91451,-0.005 -2.04106,-0.10163 -2.50345,-0.21524 -0.78226,-0.19221 -0.84663,-0.15525 -0.92604,0.53171 -0.125,1.08142 -1.04765,1.46689 -3.1441304,1.31356 -0.95473,-0.0698 -1.86202,-0.0465 -2.0162,0.0519 -0.29615,0.18894 -1.62232,3.19785 -1.86074,4.22176 -0.16118,0.69222 -0.61547,0.97723 -1.93693,1.21521 -1.2911,0.2325 -2.03393,0.81581 -2.2413,1.75998 -0.38273,1.74252 -2.04045,2.89186 -4.9732,3.448037 -2.69711,0.5115 -4.41486,-0.683727 -4.41706,-3.073407 -0.001,-1.34632 -0.5033,-2.09694 -1.24508,-1.86151 -0.47255,0.14998 -1.07969,1.1304 -2.01408,3.25235 -0.28555,0.64848 -1.91938,1.40284 -3.03831,1.40284 -1.63296,0 -2.21089,-1.00347 -3.22078,-5.5923 -0.36104,-1.64054 -0.7435,-2.71469 -1.07265,-3.01257 -0.64417,-0.58296 -0.69486,-0.44176 -0.89119,2.48255 -0.25718,3.83071 -1.754759,6.04186 -4.417919,6.522947 -1.25414,0.22656 -3.00466,-0.265467 -3.59981,-1.011807 -0.69104,-0.86659 -1.69758,-1.50547 -2.37183,-1.50547 -0.4675,0 -0.57616,0.13911 -0.53644,0.68677 0.0325,0.44853 -0.15105,0.8231 -0.52919,1.07976 -0.55218,0.3748 -0.60522,0.3416 -1.14514,-0.71671 -0.54887,-1.07589 -0.55269,-1.15082 -0.12533,-2.45741 1.08431,-3.31507 2.36751,-4.90397 3.69199,-4.57155 0.83945,0.21069 1.17157,0.85156 1.49497,2.88472 0.14582,0.91675 0.54646,2.07402 0.90902,2.62572 0.35655,0.54259 0.64828,1.10813 0.64828,1.25677 0,0.34236 0.56279,0.34497 1.45239,0.007 1.03396,-0.39311 1.63538,-2.06829 2.1022,-5.85547 0.49018,-3.97678 1.04942,-5.85262 2.040189,-6.8434 0.79807,-0.79806 2.01398,-1.23049 2.3933,-0.85117 0.24747,0.24747 1.53042,5.40846 2.31102,9.29665 0.45201,2.25145 0.87537,2.90073 1.68806,2.58887 0.93056,-0.35709 1.24514,-1.45827 1.89583,-6.63647 0.99784,-7.94083 1.15998,-8.32136 3.47089,-8.14612 1.11822,0.0848 1.63607,2.27419 1.98023,8.37211 0.13976,2.47615 0.38024,4.88866 0.53441,5.36114 0.34329,1.0521 1.15379,1.65564 2.21692,1.65085 1.64498,-0.007 1.94555,-0.23155 2.39811,-1.78833 1.19604,-4.11419 1.89603,-5.0872 3.6598,-5.0872 1.4133,0 2.02962,-0.70864 2.402,-2.76178 0.10394,-0.5731 0.53829,-1.73396 0.96521,-2.57969 0.66282,-1.31304 0.88197,-1.5371 1.50002,-1.53365 0.86327,0.005 1.25296,0.25045 1.25296,0.7897 0,0.26899 0.32567,0.42369 1.01064,0.4801 0.9370604,0.0772 0.9901004,0.0448 0.72855,-0.44386 -0.37341,-0.69773 -0.10402,-1.32783 0.6484604,-1.51669 0.33522,-0.0841 1.03869,-0.63108 1.56328,-1.21543 l 0.9538,-1.06247 2.17785,0.18958 c 1.19781,0.10426 2.38216,0.29708 2.63188,0.42847 0.24971,0.13139 0.57987,0.74289 0.73368,1.35887 0.15381,0.61598 0.41709998,1.3581 0.58507998,1.64914 0.82954,1.43722 1.00219,1.93178 1.0037,2.8751 l 0.002,1.02301 1.67894002,-0.1798 1.67894,-0.1798 0.67431,2.46408 c 0.37088,1.35524 0.82826,3.05395 1.01641,3.77489 0.19027,0.72906 0.71433,1.72717 1.1808,2.24895 0.46128,0.51597 1.04388,1.5632 1.29466,2.32719 0.43421,1.32277 0.49996,1.389047 1.37814,1.389047 1.0571096,0 2.0340596,-0.436737 1.8052196,-0.807007 -0.18806,-0.30428 4.46899,-0.31293 6.2999,-0.0117 0.69555,0.11442 1.86159,0.11367 2.59121,-0.002 1.83326,-0.2898 4.22799,-1.42504 4.40091,-2.08628 0.18995,-0.72637 0.52241,-0.6876 4.35358,0.50764 4.36473,1.36171 4.92142,1.45282 6.04281,0.98909 0.50932,-0.21062 1.43206,-0.46627 2.05052,-0.5681 0.92855,-0.15289 1.12448,-0.11195 1.12448,0.23498 0,0.33383 0.30473,0.42013 1.48352,0.42013 1.17147,0 1.45325,-0.0789 1.33962,-0.37498 -0.14211,-0.37032 0.32334,-0.68335 1.01606,-0.68335 0.5929,0 1.21902,0.80799 1.04675,1.35079 -0.12639,0.39821 -0.0268,0.50128 0.4845,0.50128 1.06016,0 1.9356,-0.93927 3.04897,-3.27129 0.57998,-1.21479 1.236,-2.27835 1.45783,-2.36348 0.22184,-0.0851 0.44169,-0.48922 0.48857,-0.898 0.0772,-0.67342 0.19423,-0.75104 1.245651,-0.82635 0.63823,-0.0457 1.27661,0.0331 1.41862,0.17508 0.14201,0.14201 0.296,0.9385 0.34221,1.76998 0.0761,1.36877 0.18392,1.60779 1.14013,2.52659 0.58086,0.55814 1.36406,1.09209 1.74044,1.18656 0.88646,0.22249 1.95704,-0.46844 2.31444,-1.49366 0.33056,-0.94823 0.48499,-0.95523 1.80494,-0.0817 0.82509,0.54602 1.22947,0.65481 1.91255,0.51458 0.47644,-0.0978 1.75594,-0.24516 2.84334,-0.32744 1.8675,-0.1413 1.95561,-0.12371 1.58957,0.31734 -0.35686,0.42998 -0.33534,0.45102 0.27187,0.26606 0.90329,-0.27517 1.82696,-1.16538 2.24543,-2.16411 0.19207,-0.4584 0.60178,-2.50093 0.91046,-4.53898 0.61173,-4.03899 1.12658,-5.87096 1.81873,-6.47153 0.65448,-0.56789 1.79283,-0.77839 2.1115,-0.39045 0.14826,0.18049 0.58611,2.35223 0.973,4.82609 0.77821,4.97608 1.06083,6.11603 1.69569,6.83954 0.23626,0.26925 0.6677,0.98362 0.95874,1.58749 0.69465,1.4413 1.85907,2.02303 4.05051,2.02357 0.96296,2.3e-4 1.60485,-0.10381 1.51704,-0.24589 -0.18137,-0.29347 0.15132,-0.53068 1.57232,-1.12107 0.58421,-0.24271 1.03151,-0.57295 0.99398,-0.73384 -0.0375,-0.1609 0.34796,-0.65796 0.85663,-1.10456 0.52767,-0.4633 1.06048,-1.26471 1.24066,-1.86609 0.17618,-0.58803 0.68801,-1.36679 1.15765,-1.7614 1.09336,-0.91866 1.35946,-1.46387 1.84802,-3.78639 0.22252,-1.05783 0.59818,-2.13725 0.83479,-2.3987 0.51349,-0.5674 1.22613,-0.61466 1.64569,-0.10912 0.24669,0.29725 1.08202,4.16603 1.08339,5.0177 2e-4,0.12351 0.35642,0.55719 0.79161,0.96371 0.43519,0.40653 0.9412,1.1962 1.12448,1.75483 0.25147,0.76646 0.61422,1.17062 1.47845,1.64722 0.62986,0.34735 1.66258,1.17146 2.29491,1.83137 1.09893,1.14681 1.18429,1.18548 1.93256,0.87554 1.073511,-0.44466 2.040541,-1.54224 2.428911,-2.75681 0.2396,-0.7493 0.627,-1.19832 1.47663,-1.71152 1.10116,-0.66512 1.45668,-1.1509 2.36084,-3.22579 0.22194,-0.50933 0.63339,-1.28323 0.91433,-1.71979 0.28093,-0.43657 0.8355,-1.86532 1.23236,-3.175 l 0.72156,-2.38125 0.19618,-26.19373 c 0.1349,-18.00532 0.29274,-26.72432 0.50496,-27.89086 0.34195,-1.87961 1.00403,-3.72689 1.33574,-3.72689 0.7759,0 1.09538,8.65402 1.19933,32.48686 0.0529,12.11969 0.16711,22.15071 0.2539,22.29113 0.33472,0.54158 0.94774,0.21358 1.37716,-0.73686 0.24656,-0.54571 0.62028,-1.20055 0.83048,-1.45521 0.53341,-0.64622 1.72546,-0.57717 2.56949,0.14883 0.64499,0.55479 0.73169,0.8533 0.92976,3.20073 0.12014,1.42388 0.35704,2.75589 0.52645,2.96002 0.16941,0.20412 0.6804,0.3723 1.13552,0.37372 1.58918,0.005 5.19313,2.14021 5.19313,3.07678 0,0.7403 0.80676,1.94772 1.3014,1.94772 0.54019,0 0.81526,-0.49322 0.81526,-1.46184 0,-1.94062 3.86562,-1.8791 4.85447,0.0773 0.36105,0.71431 1.53887,5.28549 1.89064,7.33769 0.22934,1.33795 0.50622,1.66635 1.57373,1.86662 1.95057,0.36592 4.56519,-1.09438 4.31382,-2.40933 -0.14324,-0.7493 0.0656,-0.7892 1.81944,-0.34759 0.80687,0.20317 1.27956,0.21344 1.46123,0.0318 0.1477,-0.1477 0.65654,-2.07337 1.13075,-4.27928 0.47421,-2.2059 0.99805,-4.14659 1.1641,-4.31264 0.36077,-0.36077 5.85132,-1.51482 7.24866,-1.52358 1.13525,-0.007 1.37511,-0.32614 1.64524,-2.18828 0.22983,-1.58423 0.59786,-1.78662 3.24874,-1.78662 2.14953,0 3.25127,-0.41047 3.25127,-1.2113 0,-0.21315 0.29278,-0.52095 0.65062,-0.68399 0.98549,-0.44902 1.87505,0.24387 2.09727,1.63358 0.21284,1.33097 1.17644,2.28831 3.52973,3.50678 1.96992,1.01997 2.10335,1.30229 2.4678,5.22158 0.64361,6.92134 0.92801,8.09643 2.02622,8.37206 1.34509,0.33759 2.42073,-1.60489 3.21819,-5.81168 0.61314,-3.23454 1.09928,-4.41399 2.20165,-5.34158 0.9979,-0.83967 2.45144,-0.88449 3.28512,-0.10128 0.57288,0.53819 0.67064,0.54519 2.88029,0.20619 l 2.28729,-0.3509 0.91651,-1.98368 c 0.50408,-1.09102 0.98712,-2.26497 1.07341,-2.6088 0.21295,-0.84844 0.661,-0.96489 1.99831,-0.51938 0.92438,0.30794 1.15807,0.51977 1.2681,1.14943 0.12256,0.70133 0.23143,0.77192 1.19063,0.77192 0.97381,0 1.07868,-0.0718 1.35155,-0.92604 0.3646,-1.14133 1.55536,-1.9451 1.95985,-1.32291 0.5104,0.78509 0.80932,2.43056 1.04784,5.76795 0.5704,7.98098 1.95233,11.93882 3.94748,11.30558 0.56756,-0.18012 0.49128,0.2904 1.74567,-10.76797 0.96269,-8.48677 1.15268,-9.27076 2.32067,-9.57619 0.68946,-0.1803 1.67436,0.40574 1.90543,1.13378 0.0913,0.28769 0.56231,0.76799 1.04666,1.06734 1.55669,0.96209 2.20632,3.30298 3.87621,13.96793 0.58994,3.76776 0.59081,3.7703 1.30061,3.7703 0.39066,0 1.29477,-0.17731 2.00911,-0.39401 1.80274,-0.54688 2.67672,-0.50941 3.01861,0.12942 0.5402,1.00935 3.43958,0.43978 3.43958,-0.67569 0,-0.20962 0.4005,-0.82793 0.88998,-1.37405 1.17801,-1.31428 1.50498,-2.01415 2.6415,-5.6541 0.98007,-3.13892 1.58747,-4.16658 1.93201,-3.26873 0.23783,0.61981 -0.29721,4.52069 -0.97502,7.10851 -0.68418,2.61208 -1.36093,3.95228 -2.37394,4.70123 -0.43538,0.32189 -0.79161,0.72981 -0.79161,0.90649 0,0.53441 -1.54572,0.90217 -3.79188,0.90217 -1.16898,0 -3.18211,0.1355 -4.47365,0.30114 -2.80305,0.35947 -3.37865,0.15556 -4.14642,-1.46892 -0.28107,-0.59465 -0.71837,-2.37307 -0.97182,-3.95205 -0.32287,-2.01151 -0.6459,-3.14363 -1.07914,-3.78205 -0.34786,-0.5126 -0.61834,-1.30429 -0.61834,-1.80985 0,-1.08028 -0.25828,-1.28439 -1.18122,-0.93349 -0.82773,0.3147 -1.40753,1.5621 -1.77922,3.82783 -0.80883,4.93033 -0.97484,5.50871 -1.83629,6.39749 -1.56197,1.61154 -3.43005,2.09575 -4.98439,1.29198 -1.25456,-0.64876 -2.07197,-2.70584 -3.55004,-8.93403 -0.095,-0.40018 -0.2781,-0.72761 -0.40696,-0.72761 -0.12886,0 -0.5959,0.64075 -1.03787,1.42388 -1.17612,2.08396 -2.80207,3.16356 -3.37308,2.23967 -0.10374,-0.16786 -0.27797,-1.28551 -0.38718,-2.48365 -0.24465,-2.68415 -0.57368,-3.42471 -1.33952,-3.01484 -0.29643,0.15864 -0.65556,0.62291 -0.79807,1.03171 -0.26007,0.74604 -1.01372,1.06782 -2.50097,1.06782 -0.66408,0 -1.16686,0.67934 -1.16686,1.57665 0,0.49597 -0.8502,1.06918 -1.58582,1.06918 -0.53421,0 -1.06001,-0.90182 -1.06001,-1.81807 0,-1.11687 -0.37425,-1.62151 -1.20254,-1.62151 -0.88745,0 -1.36102,0.78486 -1.55492,2.57703 -0.22805,2.10774 -0.54097,3.01901 -1.67906,4.88973 -1.0483,1.72313 -2.46559,2.59099 -4.56,2.79223 -2.30908,0.22187 -2.94378,-0.67314 -3.5525,-5.0095 -0.45632,-3.25073 -0.70099,-3.97599 -1.74081,-5.16028 -0.42753,-0.48693 -0.96765,-1.54003 -1.20027,-2.34022 -0.23929,-0.82312 -0.63693,-1.56942 -0.9157,-1.71862 -0.66553,-0.35618 -2.6442,-0.3372 -2.6442,0.0254 0,0.19118 -0.47037,0.2388 -1.38906,0.14061 -3.36902,-0.36009 -3.17628,-0.39888 -3.78151,0.76095 -0.30374,0.58208 -0.9579,1.33215 -1.45368,1.66681 -0.49578,0.33467 -0.97444,0.72663 -1.06369,0.87104 -0.10713,0.17334 -0.55917,0.17106 -1.33039,-0.007 -1.9165,-0.44176 -1.94576,-0.42538 -2.61209,1.46208 -0.6525,1.84828 -1.65597,3.28281 -2.29636,3.28281 -0.56621,0 -1.62457,1.2454 -1.82191,2.1439 -0.21097,0.96051 -1.26215,2.24365 -2.26135,2.76036 -0.41201,0.21306 -1.38009,0.38879 -2.1513,0.39052 -0.77121,0.002 -2.05705,0.17891 -2.85741,0.39373 -1.94689,0.52256 -3.16361,0.49636 -4.55017,-0.098 -1.4568,-0.62447 -1.75519,-1.27068 -2.05629,-4.45314 -0.14809,-1.56533 -0.40541,-2.75572 -0.68934,-3.18907 l -0.45305,-0.69144 -0.60654,0.70514 c -0.35765,0.41579 -0.67399,1.22288 -0.77093,1.96687 -0.3826,2.93648 -0.71433,3.84626 -1.78521,4.89593 -0.83982,0.82319 -1.21065,1.00967 -1.8786,0.94467 -1.06018,-0.10317 -1.37383,-0.75055 -1.70568,-3.52055 -0.32313,-2.69718 -0.85378,-3.94984 -1.95858,-4.62342 -0.4817,-0.29368 -0.71996,-0.53441 -0.52947,-0.53495 0.69615,-0.002 0.0104,-0.50097 -1.2755,-0.92807 -0.72589,-0.24112 -1.31981,-0.60001 -1.31981,-0.79756 0,-0.19754 -0.53919,-0.74639 -1.19821,-1.21966 -0.68124,-0.48923 -1.26958,-1.15271 -1.36365,-1.53779 -0.21789,-0.892 -0.52203,-1.06528 -1.87821,-1.07013 -0.76567,-0.003 -1.18214,0.12457 -1.28508,0.39282 -0.0838,0.21828 -0.47025,0.39688 -0.85887,0.39688 -1.10222,0 -1.79139,0.64605 -1.98575,1.8615 -0.18991,1.18765 -1.75824,5.25005 -2.41207,6.24791 -0.22492,0.34327 -0.85074,0.83214 -1.39073,1.0864 -0.56176,0.26452 -1.01998,0.68851 -1.07105,0.99104 -0.0491,0.29081 -0.75441,1.15383 -1.56738,1.9178 l -1.47811,1.38907 h -2.190871 c -1.20498,0 -2.2549,-0.1036 -2.33316,-0.23021 -0.0783,-0.12663 -0.85105,-0.49529 -1.71732,-0.81926 -0.96611,-0.3613 -1.52736,-0.71325 -1.45173,-0.91033 0.0756,-0.19701 -0.51962,-0.57101 -1.53848,-0.9667 -1.44139,-0.55977 -1.68058,-0.75063 -1.80356,-1.43911 -0.12571,-0.70373 -0.24052,-0.78908 -1.01249,-0.75262 -0.88769,0.0419 -1.97575,1.05549 -3.32708,3.0993 -1.18487,1.79207 -5.62591,3.190357 -9.62997,3.03206 -2.14544,-0.0848 -2.22595,-0.11197 -3.07348,-1.03679 -0.47868,-0.52233 -1.07981,-1.5939 -1.33584,-2.38124 -0.56044,-1.72347 -1.57105,-3.15132 -2.23045,-3.15132 -0.37577,0 -0.51881,0.28034 -0.65083,1.27557 -0.25757,1.9416 -1.41073,3.54607 -3.16577,4.40472 -1.60069,0.78314 -2.61044,0.75356 -3.87694,-0.11359 -1.18069,-0.80839 -1.26841,-0.81593 -2.03066,-0.17454 -1.04134,0.87623 -2.47812,1.219187 -5.11484,1.220907 -2.82059,0.002 -3.73947,-0.260547 -5.04607,-1.440977 -1.13762,-1.02777 -2.270821,-1.23999 -2.540541,-0.47577 -0.34843,0.98725 -1.31995,1.69219 -3.06084,2.220967 -1.47564,0.44822 -2.16022,0.51466 -3.71579,0.36063 -1.04879,-0.10384 -3.64827,-0.16474 -5.77662,-0.13533 -3.54557,0.049 -4.04124,-0.004 -5.91708,-0.634147 -1.12604,-0.3782 -2.2496,-0.68764 -2.49678,-0.68764 -0.24719,0 -1.51357,0.36037 -2.81417,0.800827 -4.51882,1.5303 -9.68476,2.25335 -13.08036,1.83077 z M -6.6979216,-36.467503 c 0.51356,-0.32529 0.12475,-0.81928 -0.64482,-0.81928 -0.46946,0 -0.64585,0.14452 -0.64585,0.52916 0,0.56016 0.63793,0.70356 1.29067,0.29012 z"
       id="path130"
       sodipodi:nodetypes="cssccsssssssscssssssssssssssssscssssssssscsssscssssscssssccccssssssscsssssssssssssssssssssssssssssssssssssssssssssssssssscsssssssssssssssssssssscsssssssssssscsssssssssssssssssssssssssssssssssssssssssssssssssssssssssscsssscsssscssssssssssscssssssscsssssssssssssssscssssssssccssss" />
    <path
       style="fill:#cccccc;stroke:none;stroke-width:0.175894px;stroke-linecap:butt;stroke-linejoin:miter;stroke-opacity:1"
       d="m 23.845895,83.605646 -0.20564,50.221104 86.962575,-25.39242 6.9921,-42.773634 z"
       id="path132"
       inkscape:export-xdpi="100"
       inkscape:export-ydpi="100" />
    <path
       style="fill:#999999;fill-opacity:1;stroke:#999999;stroke-width:0.840734;stroke-miterlimit:4;stroke-dasharray:none"
       d="m 42.829125,172.64274 c -1.77104,-0.52986 -3.02993,-2.47296 -3.18206,-4.91157 -0.0966,-1.54955 -0.15964,-1.68781 -0.78594,-1.72515 -0.88795,-0.0529 -1.17696,-1.06808 -1.18142,-4.14966 -0.003,-2.01276 -0.0671,-2.18256 -0.82839,-2.19212 -0.34893,-0.005 -0.77875,-0.0932 -0.95517,-0.19743 -0.29847,-0.1763 -0.32302,-0.1424 -0.35333,0.4877 -0.0477,0.99192 -0.39972,1.34549 -1.19962,1.20485 -0.36428,-0.064 -0.71045,-0.0426 -0.76927,0.0476 -0.113,0.1733 -0.61898,2.93317 -0.70996,3.87234 -0.0615,0.63492 -0.23483,0.89634 -0.73903,1.11463 -0.49261,0.21325 -0.77602,0.74829 -0.85514,1.61431 -0.14603,1.5983 -0.77852,2.65251 -1.89751,3.16265 -1.02905,0.46917 -1.68445,-0.62713 -1.68528,-2.81903 -3.9e-4,-1.23489 -0.19204,-1.92338 -0.47505,-1.70744 -0.18031,0.13757 -0.41195,1.03684 -0.76846,2.98317 -0.10896,0.5948 -0.73233,1.28673 -1.15925,1.28673 -0.62305,0 -0.84356,-0.92042 -1.22887,-5.12945 -0.13775,-1.50475 -0.28368,-2.49 -0.40926,-2.76323 -0.24578,-0.53471 -0.26512,-0.40519 -0.34004,2.27708 -0.0981,3.51366 -0.66951,5.5418 -1.68562,5.98307 -0.47851,0.20781 -1.14641,-0.2435 -1.37348,-0.92807 -0.26367,-0.79486 -0.64771,-1.38086 -0.90495,-1.38086 -0.17839,0 -0.21985,0.12759 -0.20468,0.62993 0.0124,0.4114 -0.0576,0.75497 -0.20192,0.99039 -0.21068,0.34378 -0.23092,0.31332 -0.43692,-0.65739 -0.20941,-0.98685 -0.21087,-1.05557 -0.0478,-2.25402 0.4137,-3.04069 0.9033,-4.49809 1.40864,-4.19318 0.32029,0.19325 0.447,0.78108 0.57039,2.64596 0.0557,0.84088 0.2085,1.90236 0.34684,2.4084 0.13604,0.49768 0.24734,1.01641 0.24734,1.15275 0,0.31403 0.21474,0.31642 0.55416,0.006 0.39449,-0.36057 0.62396,-1.8971 0.80207,-5.37083 0.18703,-3.64764 0.4004,-5.36822 0.77843,-6.277 0.3045,-0.732 0.76843,-1.12864 0.91315,-0.78072 0.0944,0.22699 0.58393,4.96082 0.88176,8.5272 0.17245,2.06511 0.33398,2.66065 0.64407,2.3746 0.35504,-0.32754 0.47507,-1.33758 0.72333,-6.08719 0.38073,-7.2836 0.44259,-7.63263 1.32431,-7.4719 0.42663,0.0778 0.62423,2.08597 0.75554,7.67918 0.0533,2.27121 0.14507,4.48404 0.20389,4.91742 0.13098,0.96502 0.44022,1.51861 0.84586,1.51421 0.62763,-0.006 0.7423,-0.21238 0.91498,-1.64031 0.45634,-3.77367 0.72342,-4.66615 1.39638,-4.66615 0.53923,0 0.77439,-0.64999 0.91646,-2.5332 0.0397,-0.52567 0.20538,-1.59045 0.36827,-2.36618 0.25289,-1.20436 0.33651,-1.40988 0.57232,-1.40671 0.32939,0.005 0.47807,0.22972 0.47807,0.72434 0,0.24672 0.12424,0.38862 0.38559,0.44036 0.35753,0.0708 0.37777,0.0411 0.27798,-0.40712 -0.14247,-0.63998 -0.0397,-1.21793 0.24742,-1.39116 0.12789,-0.0771 0.3963,-0.57885 0.59645,-1.11483 l 0.36392,-0.97454 0.83094,0.17389 c 0.45703,0.0956 0.9089,0.27249 1.00418,0.39301 0.0952,0.12051 0.22126,0.6814 0.27993,1.2464 0.0586,0.565 0.15915,1.2457 0.22323,1.51265 0.31651,1.31826 0.38238,1.77189 0.38297,2.63713 l 7.6e-4,0.93834 0.64058,-0.16492 0.64059,-0.16491 0.25729,2.26013 c 0.14149,1.24307 0.31601,2.80119 0.3878,3.46246 0.0725,0.66872 0.27255,1.58422 0.45052,2.06281 0.17601,0.47326 0.39829,1.43382 0.49397,2.13458 0.16567,1.21328 0.19077,1.27408 0.52582,1.27408 0.40333,0 0.77609,-0.40059 0.68877,-0.74022 -0.0718,-0.27909 1.70512,-0.28703 2.4037,-0.0107 0.26537,0.10495 0.71027,0.10426 0.98865,-0.002 0.69947,-0.26581 1.61316,-1.30709 1.67913,-1.9136 0.0724,-0.66625 0.19934,-0.63069 1.66109,0.46562 1.66534,1.24901 1.87773,1.33258 2.30558,0.90723 0.19434,-0.19319 0.54642,-0.42768 0.78238,-0.52108 0.35429,-0.14024 0.42903,-0.10269 0.42903,0.21553 0,0.3062 0.11627,0.38536 0.56604,0.38536 0.44696,0 0.55448,-0.0724 0.51112,-0.34395 -0.0543,-0.33967 0.12337,-0.62679 0.38767,-0.62679 0.22622,0 0.46511,0.74112 0.39938,1.23899 -0.0483,0.36525 -0.0103,0.45979 0.18486,0.45979 0.40449,0 0.73851,-0.86153 1.16332,-3.00054 0.22128,-1.11424 0.47158,-2.08977 0.55621,-2.16786 0.0847,-0.0781 0.16854,-0.44873 0.18642,-0.82367 0.0294,-0.61769 0.0741,-0.68888 0.47527,-0.75796 0.24352,-0.0419 0.48707,0.0304 0.54127,0.16059 0.0542,0.13026 0.11294,0.86082 0.13056,1.62348 0.0291,1.25549 0.0703,1.47472 0.43501,2.31748 0.22163,0.51194 0.52046,1.0017 0.66405,1.08835 0.33823,0.20407 0.7467,-0.42967 0.88307,-1.37004 0.12612,-0.86974 0.18503,-0.87616 0.68865,-0.0749 0.31482,0.50083 0.46911,0.60062 0.72972,0.47199 0.18179,-0.0897 0.66998,-0.22486 1.08486,-0.30033 0.71254,-0.12961 0.74615,-0.11348 0.6065,0.29107 -0.13616,0.39439 -0.12795,0.41369 0.10373,0.24404 0.34464,-0.2524 0.69706,-1.06893 0.85672,-1.98499 0.0733,-0.42046 0.22961,-2.29394 0.34738,-4.16331 0.2334,-3.70469 0.42984,-5.38504 0.69392,-5.9359 0.24972,-0.52089 0.68405,-0.71397 0.80564,-0.35814 0.0566,0.16556 0.22363,2.15755 0.37124,4.42666 0.29693,4.56422 0.40475,5.60982 0.64698,6.27345 0.0901,0.24696 0.25475,0.90221 0.3658,1.4561 0.26504,1.32201 0.70931,1.85559 1.54545,1.85608 0.36741,2.2e-4 0.61232,-0.0952 0.57882,-0.22553 -0.0692,-0.26918 0.0577,-0.48676 0.5999,-1.02829 0.2229,-0.22262 0.39356,-0.52553 0.37924,-0.6731 -0.0143,-0.14758 0.13277,-0.6035 0.32685,-1.01314 0.20132,-0.42495 0.40462,-1.16003 0.47336,-1.71164 0.0672,-0.53936 0.26251,-1.25366 0.4417,-1.61561 0.41716,-0.84263 0.5187,-1.34271 0.7051,-3.47301 0.085,-0.97027 0.22822,-1.96035 0.31851,-2.20016 0.19591,-0.52044 0.46781,-0.56379 0.6279,-0.10009 0.0942,0.27264 0.41283,3.82122 0.41336,4.6024 7e-5,0.11329 0.13598,0.51107 0.30204,0.88395 0.16604,0.37288 0.3591,1.09719 0.42903,1.60958 0.0959,0.70303 0.23434,1.07374 0.56409,1.51089 0.24032,0.3186 0.63436,1.0745 0.8756,1.67979 0.4193,1.0519 0.45187,1.08737 0.73736,0.80308 0.4096,-0.40786 0.77857,-1.4146 0.92673,-2.52864 0.0914,-0.68728 0.23924,-1.09914 0.56341,-1.56986 0.42014,-0.61007 0.55578,-1.05565 0.90077,-2.95881 0.0847,-0.46717 0.24165,-1.17702 0.34884,-1.57744 0.10719,-0.40044 0.31878,-1.71094 0.4702,-2.91222 l 0.27531,-2.18416 0.0748,-24.02577 c 0.0515,-16.51508 0.1117,-24.51244 0.19267,-25.58243 0.13046,-1.72404 0.38309,-3.41843 0.50964,-3.41843 0.29604,0 0.41793,7.93776 0.4576,29.79804 0.0201,11.11658 0.0638,20.31737 0.0969,20.44617 0.12771,0.49675 0.3616,0.1959 0.52544,-0.67587 0.0941,-0.50055 0.23667,-1.10119 0.31687,-1.33477 0.20353,-0.59274 0.65834,-0.5294 0.98037,0.13651 0.2461,0.50887 0.27917,0.78268 0.35474,2.93582 0.0459,1.30603 0.13623,2.52779 0.20086,2.71503 0.0646,0.18722 0.25961,0.34148 0.43326,0.34279 0.60634,0.005 1.9814,1.96307 1.9814,2.82212 0,0.67903 0.30782,1.78651 0.49654,1.78651 0.20611,0 0.31106,-0.45239 0.31106,-1.34084 0,-1.78001 1.4749,-1.72358 1.85219,0.0709 0.13776,0.65518 0.58715,4.84802 0.72136,6.73037 0.0875,1.22721 0.19315,1.52843 0.60045,1.71213 0.74423,0.33563 1.74181,-1.00381 1.64591,-2.20992 -0.0547,-0.68729 0.025,-0.72388 0.69419,-0.31882 0.30787,0.18635 0.48822,0.19577 0.55753,0.0292 0.0564,-0.13548 0.25049,-1.90177 0.43143,-3.9251 0.18094,-2.02333 0.3808,-3.80339 0.44415,-3.9557 0.13765,-0.33091 2.23253,-1.38944 2.76568,-1.39748 0.43316,-0.006 0.52466,-0.29914 0.62773,-2.00716 0.0877,-1.45311 0.22811,-1.63875 1.23954,-1.63875 0.82014,0 1.2405,-0.3765 1.2405,-1.11104 0,-0.19551 0.111705,-0.47784 0.248235,-0.62738 0.376,-0.41186 0.7154,0.22368 0.80019,1.49837 0.0812,1.22081 0.44886,2.09892 1.34676,3.21654 0.7516,0.93555 0.80251,1.1945 0.94156,4.78941 0.24556,6.34848 0.35408,7.42631 0.77309,7.67913 0.51321,0.30965 0.92362,-1.47206 1.22789,-5.33067 0.23393,-2.96683 0.41941,-4.04866 0.84002,-4.89947 0.38074,-0.77018 0.93533,-0.81129 1.25341,-0.0929 0.21859,0.49364 0.25588,0.50006 1.09895,0.18912 l 0.87271,-0.32186 0.34968,-1.8195 c 0.19233,-1.00072 0.37663,-2.0775 0.40956,-2.39287 0.0812,-0.77822 0.2522,-0.88503 0.76244,-0.4764 0.3527,0.28246 0.44186,0.47675 0.48384,1.0543 0.0468,0.64328 0.0882,0.70803 0.45428,0.70803 0.37154,0 0.41156,-0.0659 0.51567,-0.84939 0.13911,-1.04687 0.59344,-1.78412 0.74777,-1.21342 0.19474,0.72011 0.30879,2.22939 0.39979,5.29055 0.21764,7.32043 0.74491,10.95069 1.50614,10.36986 0.21655,-0.16521 0.18744,0.26636 0.66605,-9.87674 0.3673,-7.78435 0.43979,-8.50345 0.88543,-8.7836 0.26306,-0.16538 0.63884,0.37216 0.727,1.03994 0.0348,0.26388 0.21456,0.70442 0.39935,0.979 0.59395,0.88246 0.84181,3.0296 1.47895,12.81185 0.22508,3.45591 0.22542,3.45824 0.49623,3.45824 0.14906,0 0.49401,-0.16263 0.76657,-0.36139 0.68782,-0.50162 1.02128,-0.46725 1.15173,0.1187 0.20611,0.92581 1.31234,0.40338 1.31234,-0.61976 0,-0.19227 0.15281,-0.75941 0.33957,-1.26033 0.44947,-1.2055 0.57421,-1.84744 1.00785,-5.18613 0.37393,-2.87912 0.60568,-3.82172 0.73714,-2.99818 0.0908,0.56851 -0.1134,4.14652 -0.37201,6.52016 -0.26104,2.39589 -0.51926,3.62516 -0.90575,4.31212 -0.16613,0.29525 -0.30205,0.66941 -0.30205,0.83147 0,0.49018 -0.58974,0.8275 -1.44676,0.8275 -0.44602,0 -1.21411,0.12428 -1.70689,0.27621 -1.06949,0.32972 -1.28911,0.14269 -1.58203,-1.34734 -0.10725,-0.54543 -0.27409,-2.17666 -0.3708,-3.62495 -0.12319,-1.84503 -0.24645,-2.88344 -0.41174,-3.46902 -0.13273,-0.47018 -0.23592,-1.19634 -0.23592,-1.66006 0,-0.99087 -0.0986,-1.17808 -0.45069,-0.85623 -0.31582,0.28866 -0.53703,1.43281 -0.67885,3.51102 -0.3086,4.52226 -0.37194,5.05277 -0.70062,5.86799 -0.59596,1.47816 -1.30872,1.92229 -1.90177,1.18504 -0.47866,-0.59506 -0.79054,-2.48188 -1.35449,-8.19459 -0.0362,-0.36705 -0.10612,-0.66738 -0.15527,-0.66738 -0.0491,0 -0.22737,0.58771 -0.396,1.30603 -0.44873,1.91147 -1.0691,2.90172 -1.28697,2.0543 -0.0396,-0.15397 -0.10606,-1.17912 -0.14773,-2.27809 -0.0934,-2.46199 -0.21887,-3.14126 -0.51108,-2.76531 -0.1131,0.14551 -0.25012,0.57135 -0.3045,0.94632 -0.0992,0.68429 -0.38678,0.97944 -0.95423,0.97944 -0.25338,0 -0.4452,0.62311 -0.4452,1.44615 0,0.45492 -0.32439,0.98069 -0.60507,0.98069 -0.20382,0 -0.40444,-0.82718 -0.40444,-1.66759 0,-1.02443 -0.14279,-1.48731 -0.45882,-1.48731 -0.33859,0 -0.51928,0.7199 -0.59326,2.36374 -0.087,1.93329 -0.20641,2.76914 -0.64064,4.48502 -0.39997,1.58052 -0.94073,2.37655 -1.73984,2.56113 -0.88101,0.20351 -1.12318,-0.61743 -1.35543,-4.59488 -0.1741,-2.98168 -0.26746,-3.64691 -0.66419,-4.73318 -0.16313,-0.44663 -0.36921,-1.41257 -0.45796,-2.14653 -0.0914,-0.75499 -0.24301,-1.43952 -0.34937,-1.57637 -0.25394,-0.3267 -1.00889,-0.3093 -1.00889,0.0233 0,0.17535 -0.179455,0.21903 -0.529975,0.12897 -1.28543,-0.33029 -1.21189,-0.36587 -1.44281,0.69797 -0.11589,0.5339 -0.36549,1.22189 -0.55464,1.52885 -0.18917,0.30697 -0.3718,0.66649 -0.40584,0.79895 -0.0409,0.15899 -0.21336,0.1569 -0.50761,-0.006 -0.73123,-0.4052 -0.7424,-0.39018 -0.99662,1.34107 -0.24896,1.6953 -0.63183,3.0111 -0.87617,3.0111 -0.21603,0 -0.61983,1.14232 -0.69514,1.96646 -0.0804,0.88101 -0.48157,2.05795 -0.8628,2.53189 -0.1572,0.19543 -0.52656,0.35661 -0.82082,0.3582 -0.29424,0.002 -0.78485,0.1641 -1.09023,0.36114 -0.7428,0.47931 -1.20704,0.45528 -1.73608,-0.0899 -0.55583,-0.57278 -0.66968,-1.16551 -0.78456,-4.08457 -0.0564,-1.43577 -0.15468,-2.52764 -0.263,-2.92512 l -0.17287,-0.63421 -0.23142,0.64678 c -0.13646,0.38137 -0.25715,1.12166 -0.29414,1.80408 -0.14599,2.69343 -0.27255,3.52791 -0.68115,4.49071 -0.32042,0.75505 -0.46191,0.9261 -0.71675,0.86648 -0.4045,-0.0946 -0.52419,-0.68843 -0.6508,-3.22917 -0.12329,-2.47394 -0.32575,-3.62292 -0.74728,-4.24075 -0.18379,-0.26938 -0.2747,-0.49018 -0.20202,-0.49068 0.26561,-0.002 0.004,-0.4595 -0.48666,-0.85125 -0.27695,-0.22117 -0.50356,-0.55035 -0.50356,-0.73155 0,-0.18119 -0.20573,-0.68462 -0.45716,-1.11871 -0.25993,-0.44874 -0.48441,-1.05731 -0.5203,-1.41052 -0.0832,-0.81817 -0.19918,-0.97711 -0.71662,-0.98156 -0.29213,-0.003 -0.45103,0.11426 -0.49031,0.36031 -0.032,0.20022 -0.17942,0.36403 -0.3277,0.36403 -0.42055,0 -0.68349,0.59258 -0.75765,1.70743 -0.0724,1.08936 -0.67084,4.81552 -0.92031,5.73079 -0.0859,0.31486 -0.3246,0.76327 -0.53062,0.99649 -0.21434,0.24262 -0.38917,0.63152 -0.40866,0.90901 -0.0188,0.26674 -0.28784,1.05833 -0.59802,1.75907 l -0.56397,1.2741 h -0.8359 c -0.45975,0 -0.86035,-0.095 -0.89021,-0.21115 -0.0299,-0.11615 -0.32471,-0.4543 -0.65524,-0.75146 -0.3686,-0.33139 -0.58275,-0.65421 -0.55389,-0.83498 0.0288,-0.1807 -0.19825,-0.52375 -0.587,-0.88669 -0.54994,-0.51344 -0.64121,-0.6885 -0.68813,-1.32 -0.048,-0.64548 -0.0918,-0.72377 -0.38631,-0.69033 -0.33869,0.0384 -0.75383,0.96813 -1.26943,2.84278 -0.45207,1.64375 -2.14652,2.92631 -3.67424,2.78111 -0.81858,-0.0778 -0.8493,-0.1027 -1.17267,-0.95098 -0.18264,-0.4791 -0.41199,-1.46198 -0.50969,-2.18415 -0.21382,-1.58083 -0.59941,-2.8905 -0.85101,-2.8905 -0.14337,0 -0.19795,0.25714 -0.24831,1.17 -0.0983,1.7809 -0.53826,3.25257 -1.20789,4.04015 -0.61073,0.71833 -0.99599,0.69119 -1.47921,-0.10418 -0.45049,-0.74149 -0.48396,-0.7484 -0.77478,-0.1601 -0.39732,0.80371 -0.94552,1.11828 -1.95154,1.11986 -1.07618,0.002 -1.42678,-0.23898 -1.9253,-1.32171 -0.43405,-0.94271 -0.8664,-1.13736 -0.96933,-0.4364 -0.13294,0.90554 -0.50361,1.55214 -1.16783,2.03715 -0.56303,0.41112 -0.82422,0.47206 -1.41774,0.33078 -0.40016,-0.0952 -1.39198,-0.1511 -2.20403,-0.12413 -1.3528,0.0449 -1.54191,-0.004 -2.25763,-0.58166 -0.42964,-0.3469 -0.85833,-0.63072 -0.95264,-0.63072 -0.0944,0 -0.57748,0.33054 -1.07372,0.73454 -1.72413,1.40364 -3.69516,2.06685 -4.99074,1.67924 z m -6.77594,-14.0392 c 0.19594,-0.29837 0.0477,-0.75147 -0.24603,-0.75147 -0.17912,0 -0.24643,0.13256 -0.24643,0.48536 0,0.5138 0.2434,0.64533 0.49246,0.26611 z"
       id="path134"
       sodipodi:nodetypes="cssccsssssssscssssssssssssssssscssssssssscsssscssssscssssccccssssssscsssssssssssssssssssssssssssssssssssssssssssssssssssscsssssssssssssssssssssscsssssssssssscsssssssssssssssssssssssssssssssssssssssssssssssssssssssssscsssscsssscssssssssssscssssssscsssssssssssssssscssssssssccssss"
       inkscape:export-xdpi="100"
       inkscape:export-ydpi="100" />
    <ellipse
       style="fill:#ececec;stroke:none;stroke-width:0.107281"
       id="ellipse959"
       transform="matrix(0.74446214,0.66766468,-0.75104923,0.66024621,0,0)"
       cx="109.46267"
       cy="41.309464"
       rx="9.2914658"
       ry="12.51698"
       inkscape:export-xdpi="100"
       inkscape:export-ydpi="100" />
    <ellipse
       style="fill:#999999;stroke:none;stroke-width:0.0979866"
       id="ellipse961"
       cx="115.93327"
       cy="73.870918"
       rx="2.3471153"
       ry="13.188645"
       transform="matrix(0.90210269,0.43152143,-0.73085618,0.6825315,0,0)"
       inkscape:export-xdpi="100"
       inkscape:export-ydpi="100" />
    <ellipse
       style="fill:#999999;stroke:none;stroke-width:0.052363"
       id="ellipse963"
       cx="117.04869"
       cy="57.929756"
       rx="1.7629901"
       ry="9.1120749"
       transform="matrix(0.83368484,0.55224052,-0.72913584,0.684369,0,0)"
       inkscape:export-xdpi="100"
       inkscape:export-ydpi="100" />
    <ellipse
       style="fill:#999999;stroke:none;stroke-width:0.052363"
       id="ellipse965"
       cx="104.47966"
       cy="56.485641"
       rx="1.7629901"
       ry="9.1120749"
       transform="matrix(0.83368484,0.55224052,-0.72913584,0.684369,0,0)"
       inkscape:export-xdpi="100"
       inkscape:export-ydpi="100" />
  </g>
</svg>
