<?xml version="1.0" encoding="UTF-8" standalone="no"?>
<svg
   xmlns:dc="http://purl.org/dc/elements/1.1/"
   xmlns:cc="http://creativecommons.org/ns#"
   xmlns:rdf="http://www.w3.org/1999/02/22-rdf-syntax-ns#"
   xmlns:svg="http://www.w3.org/2000/svg"
   xmlns="http://www.w3.org/2000/svg"
   xmlns:sodipodi="http://sodipodi.sourceforge.net/DTD/sodipodi-0.dtd"
   xmlns:inkscape="http://www.inkscape.org/namespaces/inkscape"
   width="166.86687mm"
   height="131.3878mm"
   viewBox="0 0 166.86687 131.3878"
   version="1.1"
   id="svg8"
   sodipodi:docname="icon.svg"
   inkscape:version="1.0.2 (1.0.2+r75+1)"
   inkscape:export-filename="/home/yann/work/cortical-physio-icm/doc/icon.png"
   inkscape:export-xdpi="50"
   inkscape:export-ydpi="50">
  <defs
     id="defs2" />
  <sodipodi:namedview
     id="base"
     pagecolor="#ffffff"
     bordercolor="#666666"
     borderopacity="1.0"
     inkscape:pageopacity="0.0"
     inkscape:pageshadow="2"
     inkscape:zoom="0.7"
     inkscape:cx="-975.46775"
     inkscape:cy="-428.30784"
     inkscape:document-units="mm"
     inkscape:current-layer="layer1"
     inkscape:document-rotation="0"
     showgrid="false"
     inkscape:window-width="1920"
     inkscape:window-height="1020"
     inkscape:window-x="0"
     inkscape:window-y="0"
     inkscape:window-maximized="1"
     fit-margin-top="0"
     fit-margin-left="0"
     fit-margin-right="0"
     fit-margin-bottom="0" />
  <metadata
     id="metadata5">
    <rdf:RDF>
      <cc:Work
         rdf:about="">
        <dc:format>image/svg+xml</dc:format>
        <dc:type
           rdf:resource="http://purl.org/dc/dcmitype/StillImage" />
        <dc:title />
      </cc:Work>
    </rdf:RDF>
  </metadata>
  <g
     inkscape:label="Layer 1"
     inkscape:groupmode="layer"
     id="layer1"
     transform="translate(14.015071,-58.00222)">
    <path
       style="fill:#666666;fill-opacity:1;stroke-width:0.264583"
       d="m 116.67792,-43.744544 c -0.99443,-0.50662 -2.19699,-1.90265 -2.18479,-2.53628 0.004,-0.19691 3.46046,-2.21774 3.79348,-2.21774 0.0615,0 0.187,0.40038 0.2788,0.88972 0.25109,1.33844 0.96694,1.85289 2.35981,1.69589 0.63684,-0.0718 1.54782,-0.41502 2.02441,-0.76274 1.03455,-0.75483 3.44526,-4.08829 3.44526,-4.76401 0,-0.26229 -1.25016,-6.451 -2.77813,-13.75268 -1.52796,-7.30167 -2.77812,-13.44052 -2.77812,-13.64187 0,-0.30288 1.01345,-0.35381 5.86897,-0.29489 l 5.86898,0.0712 1.22945,7.60554 c 0.67621,4.18306 1.29761,7.6737 1.3809,7.75699 0.0833,0.0833 2.51469,-3.36694 5.40313,-7.66718 l 5.2517,-7.81861 1.93151,-0.005 1.93151,-0.004 -1.61933,2.31511 c -0.89063,1.27331 -5.68888,8.20203 -10.66277,15.39716 -4.97388,7.19514 -9.78052,13.86966 -10.68141,14.83225 -2.32651,2.48586 -3.8539,3.25586 -6.69639,3.37584 -1.89996,0.0802 -2.42246,0.007 -3.36697,-0.47466 z m -68.599702,-0.35023 c 0,-0.33526 7.52934,-33.62229 7.83367,-34.63244 0.12078,-0.40091 0.50087,-0.46393 2.83364,-0.46984 1.48178,-0.004 3.87593,-0.12174 5.32034,-0.26218 1.44441,-0.14044 2.66743,-0.21411 2.71783,-0.16371 0.0504,0.0504 -0.0878,0.85299 -0.30717,1.78353 -0.21935,0.93054 -0.40058,1.78256 -0.40273,1.89337 -0.002,0.11082 0.67867,-0.35449 1.51294,-1.034 2.46301,-2.00616 3.98296,-2.57291 6.94981,-2.5914 2.75989,-0.0172 3.87702,0.37085 5.40061,1.87597 2.64025,2.60824 2.99994,8.27288 0.93093,14.6609 -2.30781,7.12534 -6.53738,10.8492 -12.41695,10.93234 -2.86395,0.0405 -4.4571,-0.42641 -5.95554,-1.7454 -0.81796,-0.71999 -1.22612,-0.93558 -1.31105,-0.69247 -0.0678,0.19415 -0.54955,2.258 -1.07051,4.58634 -0.52096,2.32833 -1.06547,4.67982 -1.21004,5.22552 l -0.26284,0.99219 h -5.28147 c -4.26858,0 -5.28147,-0.0688 -5.28147,-0.35872 z m 17.9033,-11.88765 c 1.8463,-1.03529 3.7556,-5.76926 4.97011,-12.32297 0.49334,-2.66219 0.52681,-6.00688 0.0692,-6.91609 -0.46782,-0.9295 -1.88232,-1.02374 -3.1073,-0.207 -1.93579,1.29066 -4.28269,7.73583 -5.01828,13.78148 -0.29501,2.42455 -0.17799,3.79394 0.42629,4.98859 0.52414,1.03622 1.5518,1.29738 2.65997,0.67599 z m 89.252952,3.73702 c -6.45879,-0.4496 -9.79038,-3.1739 -9.14495,-7.47797 l 0.16823,-1.12184 2.65666,-0.46497 c 1.46116,-0.25575 2.71115,-0.4105 2.77775,-0.34389 0.0666,0.0666 0.0105,0.61331 -0.12468,1.21492 -0.52125,2.31991 0.49805,4.12912 3.00554,5.33471 1.28336,0.61704 4.47512,0.70292 5.7849,0.15565 1.19744,-0.50032 2.0203,-1.61978 2.0203,-2.74848 0,-1.16452 -1.18698,-2.35581 -3.36971,-3.38194 -4.78122,-2.24773 -6.02545,-2.93779 -7.19816,-3.99216 -1.83752,-1.65208 -2.50121,-3.13624 -2.334,-5.21932 0.16263,-2.02603 0.85217,-3.41787 2.49631,-5.03878 1.38013,-1.36064 4.61261,-3.10058 6.96598,-3.74957 0.80037,-0.22072 2.88396,-0.46794 4.63021,-0.54939 6.72292,-0.31357 10.34787,1.66991 10.5227,5.75775 l 0.0606,1.41779 -1.98438,0.3189 c -3.32124,0.53372 -3.17484,0.58761 -3.17599,-1.16926 -0.002,-2.99289 -1.41431,-4.16261 -5.02609,-4.16261 -2.57007,0 -3.70915,0.44573 -4.36115,1.70655 -0.95093,1.83892 -0.14595,3.0564 2.99372,4.52782 6.16541,2.88943 7.22721,3.48249 8.4825,4.73778 0.71652,0.71651 1.44773,1.74202 1.62491,2.2789 0.50274,1.52332 0.19164,3.95733 -0.74228,5.80741 -2.37846,4.7117 -7.97091,6.77165 -16.72895,6.162 z m 45.79935,-0.48377 c -3.5671,-0.96223 -5.64084,-2.70432 -6.51053,-5.46932 -0.62176,-1.9767 -0.41924,-6.54189 0.4089,-9.21778 2.54748,-8.23145 8.46112,-12.31454 17.81224,-12.29853 6.17051,0.0106 9.92216,1.76353 11.59838,5.41936 0.51981,1.13372 0.60166,1.72024 0.57226,4.10104 -0.0816,6.61023 -3.1936,12.71042 -7.90039,15.48659 -0.87312,0.51499 -2.54,1.24697 -3.70416,1.62661 -1.82802,0.59614 -2.67592,0.70322 -6.21771,0.78523 -3.47125,0.0804 -4.40172,0.0138 -6.05899,-0.4332 z m 7.77518,-2.41631 c 3.19925,-2.80897 6.82154,-18.02761 5.07665,-21.32894 -1.1418,-2.16027 -3.71674,-1.15198 -5.36507,2.10083 -2.25192,4.44396 -4.33951,14.62994 -3.69857,18.04645 0.39796,2.12133 2.2811,2.67946 3.98699,1.18166 z m -125.192702,1.81828 c 0.0777,-0.32742 1.88982,-8.27485 4.02692,-17.66095 2.137101,-9.38609 3.961671,-17.14115 4.054591,-17.23346 0.1627,-0.16162 10.642361,-0.84032 10.754231,-0.69648 0.0302,0.0388 -0.64034,3.10666 -1.49006,6.81744 -0.84971,3.71079 -1.547111,6.90523 -1.549761,7.09877 -0.003,0.19354 0.679781,-0.26096 1.516521,-1.00999 2.88949,-2.58661 6.6525,-3.88436 10.60052,-3.65582 3.74058,0.21654 5.35539,1.49708 5.3247,4.22245 -0.009,0.78477 -1.09924,6.12561 -2.44948,11.99772 l -2.43356,10.58334 -5.35573,0.0716 c -2.94564,0.0394 -5.35572,-0.0299 -5.35572,-0.1541 0,-0.12415 1.01745,-4.68074 2.26099,-10.12574 1.24355,-5.445 2.22581,-10.31458 2.18282,-10.82129 -0.0988,-1.16438 -1.03599,-1.59802 -2.31164,-1.06963 -1.99311,0.82557 -4.806161,4.69219 -5.779381,7.94392 -0.2831,0.94588 -1.1509,4.54753 -1.92844,8.00365 l -1.41372,6.28386 h -5.39754 -5.397541 z m 92.255672,0.31972 c 0,-0.43463 5.77003,-25.6219 5.92824,-25.87789 0.0758,-0.12264 2.07693,-0.29758 4.44697,-0.38877 2.37004,-0.0912 4.75565,-0.24425 5.30136,-0.34014 0.85945,-0.15103 0.99021,-0.10778 0.97745,0.32329 -0.008,0.2737 -1.35457,6.3317 -2.99214,13.46222 l -2.97741,12.96459 -5.34223,0.0716 c -3.70215,0.0496 -5.34224,-0.0164 -5.34224,-0.21492 z m 50.54211,0.20944 c 0.004,-0.0364 1.35316,-5.95974 2.99886,-13.16302 l 2.99218,-13.09688 1.96207,-0.0607 c 1.07914,-0.0334 3.49429,-0.18792 5.36699,-0.34335 1.8727,-0.15543 3.44698,-0.24053 3.4984,-0.18911 0.0514,0.0514 -0.14371,1.0866 -0.43362,2.30041 -0.28991,1.2138 -0.47539,2.25864 -0.41217,2.32185 0.0632,0.0632 0.78661,-0.43215 1.60755,-1.10081 3.12285,-2.5436 6.50429,-3.71505 10.1943,-3.53166 2.98676,0.14843 4.32699,0.8112 5.07924,2.51178 0.37635,0.85082 0.50177,1.57714 0.41973,2.43065 -0.0644,0.66948 -1.17913,5.89003 -2.47727,11.60122 l -2.36024,10.38397 -5.35781,8e-4 c -2.9468,5.3e-4 -5.35781,-0.0691 -5.35781,-0.15474 0,-0.0856 1.01203,-4.59603 2.24895,-10.02314 1.23693,-5.42711 2.24896,-10.22017 2.24896,-10.65125 0,-0.43107 -0.21773,-0.98082 -0.48385,-1.22165 -1.82117,-1.64801 -5.87856,1.86674 -7.28306,6.30912 -0.36429,1.15222 -3.61017,15.16499 -3.61017,15.58542 0,0.0865 -2.44078,0.15729 -5.42396,0.15729 -2.98318,0 -5.42095,-0.0298 -5.41727,-0.0662 z m -40.82118,-30.19245 c -1.52074,-0.56941 -1.78343,-0.89501 -1.78343,-2.21058 0,-2.2734 1.44557,-3.64928 4.25069,-4.04578 2.11488,-0.29893 4.36903,0.0712 5.20893,0.85524 0.55079,0.51418 0.62812,0.78431 0.52793,1.84416 -0.15009,1.58755 -0.72269,2.44672 -2.09839,3.14855 -1.41679,0.7228 -4.68266,0.94125 -6.10573,0.40841 z"
       id="path114"
       sodipodi:nodetypes="scsssssssscssscccsssssssscssscssssssssscsssssssssssscssssssssssssscsssssssssscsssssssscsssssssssscsscscssssssscccssssscscssscscssssssssssccssscssscsssssss" />
    <path
       style="fill:#cccccc;stroke:none;stroke-width:0.264583px;stroke-linecap:butt;stroke-linejoin:miter;stroke-opacity:1"
       d="m -2.8499974,-143.86907 -0.2793468,83.653849 118.1281642,-42.296399 9.49792,-71.24857 z"
       id="path118" />
    <ellipse
       style="fill:#ececec;stroke:none;stroke-width:0.170255"
       id="path120"
       transform="matrix(0.68414342,0.72934751,-0.6913856,0.72248595,0,0)"
       cx="-31.566034"
       cy="-158.82083"
       rx="14.758169"
       ry="19.847254" />
    <ellipse
       style="fill:#999999;stroke:none;stroke-width:0.152254"
       id="path122"
       cx="-27.056314"
       cy="-167.21828"
       rx="3.5552983"
       ry="21.021488"
       transform="matrix(0.86929495,0.49429374,-0.66930096,0.7429914,0,0)" />
    <ellipse
       style="fill:#999999;stroke:none;stroke-width:0.0822919"
       id="ellipse126"
       cx="-16.449636"
       cy="-162.19431"
       rx="2.7306299"
       ry="14.530126"
       transform="matrix(0.78567276,0.61864232,-0.66743526,0.74466783,0,0)" />
    <ellipse
       style="fill:#999999;stroke:none;stroke-width:0.0822919"
       id="ellipse128"
       cx="-35.917366"
       cy="-164.49707"
       rx="2.7306299"
       ry="14.530126"
       transform="matrix(0.78567276,0.61864232,-0.66743526,0.74466783,0,0)" />
    <path
       style="fill:#4d4d4d;fill-opacity:1;stroke-width:0.264583"
       d="m 62.069889,-98.152163 c -4.64182,-0.57767 -7.94127,-2.696107 -8.33996,-5.354767 -0.25334,-1.68937 -0.41843,-1.84011 -2.05991,-1.88082 -2.32726,-0.0577 -3.08476,-1.16445 -3.09645,-4.5241 -0.008,-2.19438 -0.17583,-2.37951 -2.17114,-2.38993 -0.91451,-0.005 -2.04106,-0.10163 -2.50345,-0.21524 -0.78226,-0.19221 -0.84663,-0.15525 -0.92604,0.53171 -0.125,1.08142 -1.04765,1.46689 -3.14413,1.31356 -0.95473,-0.0698 -1.86202,-0.0465 -2.0162,0.0519 -0.29615,0.18894 -1.62232,3.19785 -1.86074,4.22176 -0.16118,0.69222 -0.61547,0.97723 -1.93693,1.21521 -1.2911,0.2325 -2.03393,0.81581 -2.2413,1.75998 -0.38273,1.74252 -2.04045,2.89186 -4.9732,3.448037 -2.69711,0.5115 -4.41486,-0.683727 -4.41706,-3.073407 -0.001,-1.34632 -0.5033,-2.09694 -1.24508,-1.86151 -0.47255,0.14998 -1.07969,1.1304 -2.01408,3.25235 -0.28555,0.64848 -1.91938,1.40284 -3.03831,1.40284 -1.63296,0 -2.21089,-1.00347 -3.22078,-5.5923 -0.36104,-1.64054 -0.7435,-2.71469 -1.07265,-3.01257 -0.64417,-0.58296 -0.69486,-0.44176 -0.89119,2.48255 -0.25718,3.83071 -1.7547595,6.04186 -4.4179195,6.522947 -1.25414,0.22656 -3.00466,-0.265467 -3.59981,-1.011807 -0.69104,-0.86659 -1.69758,-1.50547 -2.37183,-1.50547 -0.4675,0 -0.57616,0.13911 -0.53644,0.68677 0.0325,0.44853 -0.15105,0.8231 -0.52919,1.07976 -0.55218,0.3748 -0.60522,0.3416 -1.14514,-0.71671 -0.54887,-1.07589 -0.55269,-1.15082 -0.12533,-2.45741 1.08431,-3.31507 2.36751,-4.90397 3.69199,-4.57155 0.83945,0.21069 1.17157,0.85156 1.49497,2.88472 0.14582,0.91675 0.54646,2.07402 0.90902,2.62572 0.35655,0.54259 0.64828,1.10813 0.64828,1.25677 0,0.34236 0.56279,0.34497 1.45239,0.007 1.03396,-0.39311 1.63538,-2.06829 2.1022,-5.85547 0.49018,-3.97678 1.04942,-5.85262 2.0401895,-6.8434 0.79807,-0.79806 2.01398,-1.23049 2.3933,-0.85117 0.24747,0.24747 1.53042,5.40846 2.31102,9.29665 0.45201,2.25145 0.87537,2.90073 1.68806,2.58887 0.93056,-0.35709 1.24514,-1.45827 1.89583,-6.63647 0.99784,-7.94083 1.15998,-8.32136 3.47089,-8.14612 1.11822,0.0848 1.63607,2.27419 1.98023,8.37211 0.13976,2.47615 0.38024,4.88866 0.53441,5.36114 0.34329,1.0521 1.15379,1.65564 2.21692,1.65085 1.64498,-0.007 1.94555,-0.23155 2.39811,-1.78833 1.19604,-4.11419 1.89603,-5.0872 3.6598,-5.0872 1.4133,0 2.02962,-0.70864 2.402,-2.76178 0.10394,-0.5731 0.53829,-1.73396 0.96521,-2.57969 0.66282,-1.31304 0.88197,-1.5371 1.50002,-1.53365 0.86327,0.005 1.25296,0.25045 1.25296,0.7897 0,0.26899 0.32567,0.42369 1.01064,0.4801 0.93706,0.0772 0.9901,0.0448 0.72855,-0.44386 -0.37341,-0.69773 -0.10402,-1.32783 0.64846,-1.51669 0.33522,-0.0841 1.03869,-0.63108 1.56328,-1.21543 l 0.9538,-1.06247 2.17785,0.18958 c 1.19781,0.10426 2.38216,0.29708 2.63188,0.42847 0.24971,0.13139 0.57987,0.74289 0.73368,1.35887 0.15381,0.61598 0.4171,1.3581 0.58508,1.64914 0.82954,1.43722 1.00219,1.93178 1.0037,2.8751 l 0.002,1.02301 1.67894,-0.1798 1.67894,-0.1798 0.67431,2.46408 c 0.37088,1.35524 0.82826,3.05395 1.01641,3.77489 0.19027,0.72906 0.71433,1.72717 1.1808,2.24895 0.46128,0.51597 1.04388,1.5632 1.29466,2.32719 0.43421,1.32277 0.49996,1.389047 1.37814,1.389047 1.05711,0 2.03406,-0.436737 1.80522,-0.807007 -0.18806,-0.30428 4.46899,-0.31293 6.2999,-0.0117 0.69555,0.11442 1.86159,0.11367 2.59121,-0.002 1.83326,-0.2898 4.22799,-1.42504 4.40091,-2.08628 0.18995,-0.72637 0.52241,-0.6876 4.35358,0.50764 4.36473,1.36171 4.92142,1.45282 6.04281,0.98909 0.50932,-0.21062 1.43206,-0.46627 2.05052,-0.5681 0.92855,-0.15289 1.12448,-0.11195 1.12448,0.23498 0,0.33383 0.30473,0.42013 1.48352,0.42013 1.17147,0 1.45325,-0.0789 1.33962,-0.37498 -0.14211,-0.37032 0.32334,-0.68335 1.01606,-0.68335 0.5929,0 1.21902,0.80799 1.04675,1.35079 -0.12639,0.39821 -0.0268,0.50128 0.4845,0.50128 1.06016,0 1.9356,-0.93927 3.04897,-3.27129 0.57998,-1.21479 1.236,-2.27835 1.45783,-2.36348 0.22184,-0.0851 0.44169,-0.48922 0.48857,-0.898 0.0772,-0.67342 0.19423,-0.75104 1.245651,-0.82635 0.63823,-0.0457 1.27661,0.0331 1.41862,0.17508 0.14201,0.14201 0.296,0.9385 0.34221,1.76998 0.0761,1.36877 0.18392,1.60779 1.14013,2.52659 0.58086,0.55814 1.36406,1.09209 1.74044,1.18656 0.88646,0.22249 1.95704,-0.46844 2.31444,-1.49366 0.33056,-0.94823 0.48499,-0.95523 1.80494,-0.0817 0.82509,0.54602 1.22947,0.65481 1.91255,0.51458 0.47644,-0.0978 1.75594,-0.24516 2.84334,-0.32744 1.8675,-0.1413 1.95561,-0.12371 1.58957,0.31734 -0.35686,0.42998 -0.33534,0.45102 0.27187,0.26606 0.90329,-0.27517 1.82696,-1.16538 2.24543,-2.16411 0.19207,-0.4584 0.60178,-2.50093 0.91046,-4.53898 0.61173,-4.03899 1.12658,-5.87096 1.81873,-6.47153 0.65448,-0.56789 1.79283,-0.77839 2.1115,-0.39045 0.14826,0.18049 0.58611,2.35223 0.973,4.82609 0.77821,4.97608 1.06083,6.11603 1.69569,6.83954 0.23626,0.26925 0.6677,0.98362 0.95874,1.58749 0.69465,1.4413 1.85907,2.02303 4.05051,2.02357 0.96296,2.3e-4 1.60485,-0.10381 1.51704,-0.24589 -0.18137,-0.29347 0.15132,-0.53068 1.57232,-1.12107 0.58421,-0.24271 1.03151,-0.57295 0.99398,-0.73384 -0.0375,-0.1609 0.34796,-0.65796 0.85663,-1.10456 0.52767,-0.4633 1.06048,-1.26471 1.24066,-1.86609 0.17618,-0.58803 0.68801,-1.36679 1.15765,-1.7614 1.09336,-0.91866 1.35946,-1.46387 1.84802,-3.78639 0.22252,-1.05783 0.59818,-2.13725 0.83479,-2.3987 0.51349,-0.5674 1.22613,-0.61466 1.64569,-0.10912 0.24669,0.29725 1.08202,4.16603 1.08339,5.0177 2e-4,0.12351 0.35642,0.55719 0.79161,0.96371 0.43519,0.40653 0.9412,1.1962 1.12448,1.75483 0.25147,0.76646 0.61422,1.17062 1.47845,1.64722 0.62986,0.34735 1.66258,1.17146 2.29491,1.83137 1.09893,1.14681 1.18429,1.18548 1.93256,0.87554 1.07351,-0.44466 2.04054,-1.54224 2.42891,-2.75681 0.2396,-0.7493 0.627,-1.19832 1.47663,-1.71152 1.10116,-0.66512 1.45668,-1.1509 2.36084,-3.22579 0.22194,-0.50933 0.63339,-1.28323 0.91433,-1.71979 0.28093,-0.43657 0.8355,-1.86532 1.23236,-3.175 l 0.72156,-2.38125 0.19618,-26.19373 c 0.1349,-18.00532 0.29274,-26.72432 0.50496,-27.89086 0.34195,-1.87961 1.00403,-3.72689 1.33574,-3.72689 0.7759,0 1.09538,8.65402 1.19933,32.48686 0.0529,12.11969 0.16711,22.15071 0.2539,22.29113 0.33472,0.54158 0.94774,0.21358 1.37716,-0.73686 0.24656,-0.54571 0.62028,-1.20055 0.83048,-1.45521 0.53341,-0.64622 1.72546,-0.57717 2.56949,0.14883 0.64499,0.55479 0.73169,0.8533 0.92976,3.20073 0.12014,1.42388 0.35704,2.75589 0.52645,2.96002 0.16941,0.20412 0.6804,0.3723 1.13552,0.37372 1.58918,0.005 5.19313,2.14021 5.19313,3.07678 0,0.7403 0.80676,1.94772 1.3014,1.94772 0.54019,0 0.81526,-0.49322 0.81526,-1.46184 0,-1.94062 3.86562,-1.8791 4.85447,0.0773 0.36105,0.71431 1.53887,5.28549 1.89064,7.33769 0.22934,1.33795 0.50622,1.66635 1.57373,1.86662 1.95057,0.36592 4.56519,-1.09438 4.31382,-2.40933 -0.14324,-0.7493 0.0656,-0.7892 1.81944,-0.34759 0.80687,0.20317 1.27956,0.21344 1.46123,0.0318 0.1477,-0.1477 0.65654,-2.07337 1.13075,-4.27928 0.47421,-2.2059 0.99805,-4.14659 1.1641,-4.31264 0.36077,-0.36077 5.85132,-1.51482 7.24866,-1.52358 1.13525,-0.007 1.37511,-0.32614 1.64524,-2.18828 0.22983,-1.58423 0.59786,-1.78662 3.24874,-1.78662 2.14953,0 3.25127,-0.41047 3.25127,-1.2113 0,-0.21315 0.29278,-0.52095 0.65062,-0.68399 0.98549,-0.44902 1.87505,0.24387 2.09727,1.63358 0.21284,1.33097 1.17644,2.28831 3.52973,3.50678 1.96992,1.01997 2.10335,1.30229 2.4678,5.22158 0.64361,6.92134 0.92801,8.09643 2.02622,8.37206 1.34509,0.33759 2.42073,-1.60489 3.21819,-5.81168 0.61314,-3.23454 1.09928,-4.41399 2.20165,-5.34158 0.9979,-0.83967 2.45144,-0.88449 3.28512,-0.10128 0.57288,0.53819 0.67064,0.54519 2.88029,0.20619 l 2.28729,-0.3509 0.91651,-1.98368 c 0.50408,-1.09102 0.98712,-2.26497 1.07341,-2.6088 0.21295,-0.84844 0.661,-0.96489 1.99831,-0.51938 0.92438,0.30794 1.15807,0.51977 1.2681,1.14943 0.12256,0.70133 0.23143,0.77192 1.19063,0.77192 0.97381,0 1.07868,-0.0718 1.35155,-0.92604 0.3646,-1.14133 1.55536,-1.9451 1.95985,-1.32291 0.5104,0.78509 0.80932,2.43056 1.04784,5.76795 0.5704,7.98098 1.95233,11.93882 3.94748,11.30558 0.56756,-0.18012 0.49128,0.2904 1.74567,-10.76797 0.96269,-8.48677 1.15268,-9.27076 2.32067,-9.57619 0.68946,-0.1803 1.67436,0.40574 1.90543,1.13378 0.0913,0.28769 0.56231,0.76799 1.04666,1.06734 1.55669,0.96209 2.20632,3.30298 3.87621,13.96793 0.58994,3.76776 0.59081,3.7703 1.30061,3.7703 0.39066,0 1.29477,-0.17731 2.00911,-0.39401 1.80274,-0.54688 2.67672,-0.50941 3.01861,0.12942 0.5402,1.00935 3.43958,0.43978 3.43958,-0.67569 0,-0.20962 0.4005,-0.82793 0.88998,-1.37405 1.17801,-1.31428 1.50498,-2.01415 2.6415,-5.6541 0.98007,-3.13892 1.58747,-4.16658 1.93201,-3.26873 0.23783,0.61981 -0.29721,4.52069 -0.97502,7.10851 -0.68418,2.61208 -1.36093,3.95228 -2.37394,4.70123 -0.43538,0.32189 -0.79161,0.72981 -0.79161,0.90649 0,0.53441 -1.54572,0.90217 -3.79188,0.90217 -1.16898,0 -3.18211,0.1355 -4.47365,0.30114 -2.80305,0.35947 -3.37865,0.15556 -4.14642,-1.46892 -0.28107,-0.59465 -0.71837,-2.37307 -0.97182,-3.95205 -0.32287,-2.01151 -0.6459,-3.14363 -1.07914,-3.78205 -0.34786,-0.5126 -0.61834,-1.30429 -0.61834,-1.80985 0,-1.08028 -0.25828,-1.28439 -1.18122,-0.93349 -0.82773,0.3147 -1.40753,1.5621 -1.77922,3.82783 -0.80883,4.93033 -0.97484,5.50871 -1.83629,6.39749 -1.56197,1.61154 -3.43005,2.09575 -4.98439,1.29198 -1.25456,-0.64876 -2.07197,-2.70584 -3.55004,-8.93403 -0.095,-0.40018 -0.2781,-0.72761 -0.40696,-0.72761 -0.12886,0 -0.5959,0.64075 -1.03787,1.42388 -1.17612,2.08396 -2.80207,3.16356 -3.37308,2.23967 -0.10374,-0.16786 -0.27797,-1.28551 -0.38718,-2.48365 -0.24465,-2.68415 -0.57368,-3.42471 -1.33952,-3.01484 -0.29643,0.15864 -0.65556,0.62291 -0.79807,1.03171 -0.26007,0.74604 -1.01372,1.06782 -2.50097,1.06782 -0.66408,0 -1.16686,0.67934 -1.16686,1.57665 0,0.49597 -0.8502,1.06918 -1.58582,1.06918 -0.53421,0 -1.06001,-0.90182 -1.06001,-1.81807 0,-1.11687 -0.37425,-1.62151 -1.20254,-1.62151 -0.88745,0 -1.36102,0.78486 -1.55492,2.57703 -0.22805,2.10774 -0.54097,3.01901 -1.67906,4.88973 -1.0483,1.72313 -2.46559,2.59099 -4.56,2.79223 -2.30908,0.22187 -2.94378,-0.67314 -3.5525,-5.0095 -0.45632,-3.25073 -0.70099,-3.97599 -1.74081,-5.16028 -0.42753,-0.48693 -0.96765,-1.54003 -1.20027,-2.34022 -0.23929,-0.82312 -0.63693,-1.56942 -0.9157,-1.71862 -0.66553,-0.35618 -2.6442,-0.3372 -2.6442,0.0254 0,0.19118 -0.47037,0.2388 -1.38906,0.14061 -3.36902,-0.36009 -3.17628,-0.39888 -3.78151,0.76095 -0.30374,0.58208 -0.9579,1.33215 -1.45368,1.66681 -0.49578,0.33467 -0.97444,0.72663 -1.06369,0.87104 -0.10713,0.17334 -0.55917,0.17106 -1.33039,-0.007 -1.9165,-0.44176 -1.94576,-0.42538 -2.61209,1.46208 -0.6525,1.84828 -1.65597,3.28281 -2.29636,3.28281 -0.56621,0 -1.62457,1.2454 -1.82191,2.1439 -0.21097,0.96051 -1.26215,2.24365 -2.26135,2.76036 -0.41201,0.21306 -1.38009,0.38879 -2.1513,0.39052 -0.77121,0.002 -2.05705,0.17891 -2.85741,0.39373 -1.94689,0.52256 -3.16361,0.49636 -4.55017,-0.098 -1.4568,-0.62447 -1.75519,-1.27068 -2.05629,-4.45314 -0.14809,-1.56533 -0.40541,-2.75572 -0.68934,-3.18907 l -0.45305,-0.69144 -0.60654,0.70514 c -0.35765,0.41579 -0.67399,1.22288 -0.77093,1.96687 -0.3826,2.93648 -0.71433,3.84626 -1.78521,4.89593 -0.83982,0.82319 -1.21065,1.00967 -1.8786,0.94467 -1.06018,-0.10317 -1.37383,-0.75055 -1.70568,-3.52055 -0.32313,-2.69718 -0.85378,-3.94984 -1.95858,-4.62342 -0.4817,-0.29368 -0.71996,-0.53441 -0.52947,-0.53495 0.69615,-0.002 0.0104,-0.50097 -1.2755,-0.92807 -0.72589,-0.24112 -1.31981,-0.60001 -1.31981,-0.79756 0,-0.19754 -0.53919,-0.74639 -1.19821,-1.21966 -0.68124,-0.48923 -1.26958,-1.15271 -1.36365,-1.53779 -0.21789,-0.892 -0.52203,-1.06528 -1.87821,-1.07013 -0.76567,-0.003 -1.18214,0.12457 -1.28508,0.39282 -0.0838,0.21828 -0.47025,0.39688 -0.85887,0.39688 -1.10222,0 -1.79139,0.64605 -1.98575,1.8615 -0.18991,1.18765 -1.75824,5.25005 -2.41207,6.24791 -0.22492,0.34327 -0.85074,0.83214 -1.39073,1.0864 -0.56176,0.26452 -1.01998,0.68851 -1.07105,0.99104 -0.0491,0.29081 -0.75441,1.15383 -1.56738,1.9178 l -1.47811,1.38907 h -2.19087 c -1.20498,0 -2.2549,-0.1036 -2.33316,-0.23021 -0.0783,-0.12663 -0.85105,-0.49529 -1.71732,-0.81926 -0.96611,-0.3613 -1.52736,-0.71325 -1.45173,-0.91033 0.0756,-0.19701 -0.51962,-0.57101 -1.53848,-0.9667 -1.44139,-0.55977 -1.68058,-0.75063 -1.80356,-1.43911 -0.12571,-0.70373 -0.24052,-0.78908 -1.01249,-0.75262 -0.88769,0.0419 -1.97575,1.05549 -3.32708,3.0993 -1.18487,1.79207 -5.62591,3.190357 -9.62997,3.03206 -2.14544,-0.0848 -2.22595,-0.11197 -3.07348,-1.03679 -0.47868,-0.52233 -1.07981,-1.5939 -1.33584,-2.38124 -0.56044,-1.72347 -1.57105,-3.15132 -2.23045,-3.15132 -0.37577,0 -0.51881,0.28034 -0.65083,1.27557 -0.25757,1.9416 -1.41073,3.54607 -3.16577,4.40472 -1.60069,0.78314 -2.61044,0.75356 -3.87694,-0.11359 -1.18069,-0.80839 -1.26841,-0.81593 -2.03066,-0.17454 -1.04134,0.87623 -2.47812,1.219187 -5.11484,1.220907 -2.82059,0.002 -3.73947,-0.260547 -5.04607,-1.440977 -1.13762,-1.02777 -2.270821,-1.23999 -2.540541,-0.47577 -0.34843,0.98725 -1.31995,1.69219 -3.06084,2.220967 -1.47564,0.44822 -2.16022,0.51466 -3.71579,0.36063 -1.04879,-0.10384 -3.64827,-0.16474 -5.77662,-0.13533 -3.54557,0.049 -4.04124,-0.004 -5.91708,-0.634147 -1.12604,-0.3782 -2.2496,-0.68764 -2.49678,-0.68764 -0.24719,0 -1.51357,0.36037 -2.81417,0.800827 -4.51882,1.5303 -9.68476,2.25335 -13.08036,1.83077 z m -17.75933,-15.306027 c 0.51356,-0.32529 0.12475,-0.81928 -0.64482,-0.81928 -0.46946,0 -0.64585,0.14452 -0.64585,0.52916 0,0.56016 0.63793,0.70356 1.29067,0.29012 z"
       id="path130"
       sodipodi:nodetypes="cssccsssssssscssssssssssssssssscssssssssscsssscssssscssssccccssssssscsssssssssssssssssssssssssssssssssssssssssssssssssssscsssssssssssssssssssssscsssssssssssscsssssssssssssssssssssssssssssssssssssssssssssssssssssssssscsssscsssscssssssssssscssssssscsssssssssssssssscssssssssccssss" />
    <path
       style="fill:#cccccc;stroke:none;stroke-width:0.177055px;stroke-linecap:butt;stroke-linejoin:miter;stroke-opacity:1"
       d="m -354.846,-131.31298 -0.20837,50.221045 88.11475,-25.392365 7.08474,-42.77363 z"
       id="path132"
       inkscape:export-xdpi="80"
       inkscape:export-ydpi="80" />
    <path
       style="fill:#4d4d4d;fill-opacity:1;stroke:#4d4d4d;stroke-width:0.910694;stroke-miterlimit:4;stroke-dasharray:none"
       d="m -338.719,-56.54839 c -1.90607,-0.57767 -3.26093,-2.696107 -3.42465,-5.354767 -0.10402,-1.68937 -0.17182,-1.84011 -0.84586,-1.88082 -0.95564,-0.0577 -1.26669,-1.16445 -1.27149,-4.5241 -0.003,-2.19438 -0.0722,-2.37951 -0.89154,-2.38993 -0.37553,-0.005 -0.83812,-0.10163 -1.02799,-0.21524 -0.32122,-0.19221 -0.34765,-0.15525 -0.38026,0.53171 -0.0513,1.08142 -0.4302,1.46689 -1.29108,1.31356 -0.39205,-0.0698 -0.76461,-0.0465 -0.82792,0.0519 -0.1216,0.18894 -0.66617,3.19785 -0.76408,4.22176 -0.0662,0.69222 -0.25273,0.97723 -0.79536,1.21521 -0.53017,0.2325 -0.83519,0.81581 -0.92034,1.75998 -0.15716,1.74252 -0.83787,2.89186 -2.04216,3.448037 -1.10751,0.5115 -1.81287,-0.683727 -1.81377,-3.073407 -4.2e-4,-1.34632 -0.20668,-2.09694 -0.51127,-1.86151 -0.19405,0.14998 -0.44335,1.1304 -0.82704,3.25235 -0.11726,0.64848 -0.78816,1.40284 -1.24763,1.40284 -0.67054,0 -0.90786,-1.00347 -1.32255,-5.5923 -0.14825,-1.64054 -0.30531,-2.71469 -0.44046,-3.01257 -0.26452,-0.58296 -0.28533,-0.44176 -0.36596,2.48255 -0.1056,3.83071 -0.72056,6.04186 -1.81413,6.522947 -0.51499,0.22656 -1.23381,-0.265467 -1.47819,-1.011807 -0.28377,-0.86659 -0.69708,-1.50547 -0.97394,-1.50547 -0.19198,0 -0.2366,0.13911 -0.22028,0.68677 0.0134,0.44853 -0.062,0.8231 -0.21731,1.07976 -0.22674,0.3748 -0.24852,0.3416 -0.47023,-0.71671 -0.22538,-1.07589 -0.22695,-1.15082 -0.0514,-2.45741 0.44525,-3.31507 0.97217,-4.90397 1.51604,-4.57155 0.3447,0.21069 0.48108,0.85156 0.61388,2.88472 0.0599,0.91675 0.22439,2.07402 0.37327,2.62572 0.14641,0.54259 0.2662,1.10813 0.2662,1.25677 0,0.34236 0.23111,0.34497 0.59641,0.007 0.42457,-0.39311 0.67153,-2.06829 0.86322,-5.85547 0.20128,-3.97678 0.43092,-5.85262 0.83777,-6.8434 0.32771,-0.79806 0.82701,-1.23049 0.98276,-0.85117 0.10162,0.24747 0.62844,5.40846 0.94898,9.29665 0.18561,2.25145 0.35945,2.90073 0.69317,2.58887 0.38211,-0.35709 0.51129,-1.45827 0.77848,-6.63647 0.40975,-7.94083 0.47633,-8.32136 1.42526,-8.14612 0.45917,0.0848 0.67182,2.27419 0.81314,8.37211 0.0574,2.47615 0.15614,4.88866 0.21944,5.36114 0.14097,1.0521 0.47378,1.65564 0.91034,1.65085 0.67549,-0.007 0.7989,-0.23155 0.98474,-1.78833 0.49113,-4.11419 0.77857,-5.0872 1.50283,-5.0872 0.58034,0 0.83342,-0.70864 0.98633,-2.76178 0.0427,-0.5731 0.22104,-1.73396 0.39635,-2.57969 0.27217,-1.31304 0.36216,-1.5371 0.61595,-1.53365 0.35449,0.005 0.51451,0.25045 0.51451,0.7897 0,0.26899 0.13372,0.42369 0.41499,0.4801 0.38479,0.0772 0.40657,0.0448 0.29917,-0.44386 -0.15333,-0.69773 -0.0427,-1.32783 0.26628,-1.51669 0.13765,-0.0841 0.42651,-0.63108 0.64193,-1.21543 l 0.39166,-1.06247 0.89429,0.18958 c 0.49186,0.10426 0.97819,0.29708 1.08073,0.42847 0.10254,0.13139 0.23812,0.74289 0.30127,1.35887 0.0631,0.61598 0.17128,1.3581 0.24025,1.64914 0.34064,1.43722 0.41153,1.93178 0.41216,2.8751 l 8.2e-4,1.02301 0.68942,-0.1798 0.68943,-0.1798 0.27689,2.46408 c 0.15229,1.35524 0.34011,3.05395 0.41737,3.77489 0.0781,0.72906 0.29333,1.72717 0.48487,2.24895 0.18942,0.51597 0.42865,1.5632 0.53163,2.32719 0.17829,1.32277 0.2053,1.389047 0.5659,1.389047 0.43408,0 0.83525,-0.436737 0.74128,-0.807007 -0.0772,-0.30428 1.83511,-0.31293 2.58694,-0.0117 0.28561,0.11442 0.76443,0.11367 1.06402,-0.002 0.7528,-0.2898 1.73615,-1.42504 1.80715,-2.08628 0.078,-0.72637 0.21453,-0.6876 1.78772,0.50764 1.7923,1.36171 2.02089,1.45282 2.48136,0.98909 0.20915,-0.21062 0.58806,-0.46627 0.84201,-0.5681 0.3813,-0.15289 0.46175,-0.11195 0.46175,0.23498 0,0.33383 0.12513,0.42013 0.60918,0.42013 0.48104,0 0.59675,-0.0789 0.55009,-0.37498 -0.0584,-0.37032 0.13277,-0.68335 0.41722,-0.68335 0.24347,0 0.50057,0.80799 0.42983,1.35079 -0.0519,0.39821 -0.011,0.50128 0.19895,0.50128 0.43533,0 0.79482,-0.93927 1.25201,-3.27129 0.23815,-1.21479 0.50753,-2.27835 0.59862,-2.36348 0.0911,-0.0851 0.18138,-0.48922 0.20063,-0.898 0.0317,-0.67342 0.0798,-0.75104 0.5115,-0.82635 0.26208,-0.0457 0.52421,0.0331 0.58253,0.17508 0.0583,0.14201 0.12155,0.9385 0.14051,1.76998 0.0313,1.36877 0.0756,1.60779 0.46818,2.52659 0.23852,0.55814 0.56013,1.09209 0.71468,1.18656 0.36401,0.22249 0.80362,-0.46844 0.95038,-1.49366 0.13574,-0.94823 0.19915,-0.95523 0.74116,-0.0817 0.33881,0.54602 0.50486,0.65481 0.78535,0.51458 0.19565,-0.0978 0.72105,-0.24516 1.16756,-0.32744 0.76686,-0.1413 0.80304,-0.12371 0.65274,0.31734 -0.14654,0.42998 -0.13771,0.45102 0.11163,0.26606 0.37092,-0.27517 0.75021,-1.16538 0.92204,-2.16411 0.0789,-0.4584 0.24711,-2.50093 0.37386,-4.53898 0.2512,-4.03899 0.46261,-5.87096 0.74683,-6.47153 0.26875,-0.56789 0.73619,-0.77839 0.86705,-0.39045 0.0609,0.18049 0.24067,2.35223 0.39954,4.82609 0.31956,4.97608 0.43561,6.11603 0.6963,6.83954 0.097,0.26925 0.27418,0.98362 0.39369,1.58749 0.28525,1.4413 0.76339,2.02303 1.66327,2.02357 0.39542,2.3e-4 0.659,-0.10381 0.62294,-0.24589 -0.0745,-0.29347 0.0621,-0.53068 0.64564,-1.12107 0.23989,-0.24271 0.42357,-0.57295 0.40816,-0.73384 -0.0154,-0.1609 0.14288,-0.65796 0.35176,-1.10456 0.21667,-0.4633 0.43547,-1.26471 0.50945,-1.86609 0.0723,-0.58803 0.28252,-1.36679 0.47537,-1.7614 0.44897,-0.91866 0.55824,-1.46387 0.75885,-3.78639 0.0914,-1.05783 0.24563,-2.13725 0.34279,-2.3987 0.21085,-0.5674 0.50348,-0.61466 0.67577,-0.10912 0.1013,0.29725 0.44431,4.16603 0.44488,5.0177 8e-5,0.12351 0.14635,0.55719 0.32506,0.96371 0.1787,0.40653 0.38648,1.1962 0.46174,1.75483 0.10326,0.76646 0.25221,1.17062 0.6071,1.64722 0.25864,0.34735 0.68271,1.17146 0.94235,1.83137 0.45126,1.14681 0.48631,1.18548 0.79357,0.87554 0.44082,-0.44466 0.83792,-1.54224 0.99739,-2.75681 0.0984,-0.7493 0.25746,-1.19832 0.60635,-1.71152 0.45217,-0.66512 0.59815,-1.1509 0.96944,-3.22579 0.0911,-0.50933 0.26008,-1.28323 0.37544,-1.71979 0.11536,-0.43657 0.34308,-1.86532 0.50605,-3.175 l 0.29629,-2.38125 0.0805,-26.193733 c 0.0554,-18.00532 0.12021,-26.72432 0.20736,-27.89086 0.14041,-1.87961 0.41229,-3.72689 0.54849,-3.72689 0.31861,0 0.4498,8.65402 0.49249,32.48686 0.0217,12.119693 0.0686,22.150713 0.10426,22.291133 0.13744,0.54158 0.38917,0.21358 0.5655,-0.73686 0.10124,-0.54571 0.2547,-1.20055 0.34102,-1.45521 0.21904,-0.64622 0.70853,-0.57717 1.05511,0.14883 0.26486,0.55479 0.30045,0.8533 0.38179,3.20073 0.0494,1.42388 0.14661,2.75589 0.21617,2.96002 0.0696,0.20412 0.2794,0.3723 0.46629,0.37372 0.65256,0.005 2.13245,2.14021 2.13245,3.07678 0,0.7403 0.33129,1.94772 0.5344,1.94772 0.22182,0 0.33477,-0.49322 0.33477,-1.46184 0,-1.94062 1.58734,-1.8791 1.99339,0.0773 0.14826,0.71431 0.63191,5.28549 0.77636,7.33769 0.0942,1.33795 0.20786,1.66635 0.64622,1.86662 0.80096,0.36592 1.8746,-1.09438 1.77139,-2.40933 -0.0588,-0.7493 0.0269,-0.7892 0.74711,-0.34759 0.33133,0.20317 0.52543,0.21344 0.60003,0.0318 0.0606,-0.1477 0.26959,-2.07337 0.46432,-4.27928 0.19473,-2.2059 0.40983,-4.14659 0.47801,-4.31264 0.14815,-0.36077 2.40273,-1.51482 2.97653,-1.52358 0.46617,-0.007 0.56466,-0.32614 0.67558,-2.18828 0.0944,-1.58423 0.2455,-1.78662 1.33403,-1.78662 0.88267,0 1.33508,-0.41047 1.33508,-1.2113 0,-0.21315 0.12022,-0.52095 0.26716,-0.68399 0.40467,-0.44902 0.76995,0.24387 0.8612,1.63358 0.0874,1.33097 0.48308,2.28831 1.44942,3.50678 0.8089,1.01997 0.8637,1.30229 1.01335,5.22158 0.26428,6.92134 0.38107,8.09643 0.83202,8.37206 0.55234,0.33759 0.99404,-1.60489 1.3215,-5.81168 0.25177,-3.23454 0.45139,-4.41399 0.90406,-5.34158 0.40977,-0.83967 1.00664,-0.88449 1.34897,-0.10128 0.23525,0.53819 0.27539,0.54519 1.18273,0.20619 l 0.93924,-0.3509 0.37634,-1.98368 c 0.20699,-1.09102 0.40534,-2.26497 0.44078,-2.6088 0.0874,-0.84844 0.27143,-0.96489 0.82057,-0.51938 0.37958,0.30794 0.47554,0.51977 0.52072,1.14943 0.0503,0.70133 0.095,0.77192 0.48891,0.77192 0.39987,0 0.44294,-0.0718 0.55498,-0.92604 0.14972,-1.14133 0.63868,-1.9451 0.80478,-1.32291 0.20959,0.78509 0.33233,2.43056 0.43027,5.76795 0.23423,7.98098 0.80169,11.93882 1.62096,11.30558 0.23306,-0.18012 0.20173,0.2904 0.71682,-10.76797 0.39531,-8.48677 0.47333,-9.27076 0.95294,-9.57619 0.28311,-0.1803 0.68754,0.40574 0.78243,1.13378 0.0375,0.28769 0.23091,0.76799 0.42979,1.06734 0.63923,0.96209 0.90598,3.30298 1.59169,13.96793 0.24225,3.76776 0.24261,3.7703 0.53407,3.7703 0.16042,0 0.53167,-0.17731 0.825,-0.39401 0.74027,-0.54688 1.09915,-0.50941 1.23954,0.12942 0.22182,1.00935 1.41239,0.43978 1.41239,-0.67569 0,-0.20962 0.16446,-0.82793 0.36545,-1.37405 0.48373,-1.31428 0.61799,-2.01415 1.08469,-5.6541 0.40244,-3.13892 0.65186,-4.16658 0.79334,-3.26873 0.0977,0.61981 -0.12205,4.52069 -0.40038,7.10851 -0.28094,2.61208 -0.55884,3.95228 -0.9748,4.70123 -0.17879,0.32189 -0.32507,0.72981 -0.32507,0.90649 0,0.53441 -0.63471,0.90217 -1.55706,0.90217 -0.48002,0 -1.30667,0.1355 -1.83701,0.30114 -1.15102,0.35947 -1.38738,0.15556 -1.70265,-1.46892 -0.11542,-0.59465 -0.29498,-2.37307 -0.39906,-3.95205 -0.13258,-2.01151 -0.26523,-3.14363 -0.44313,-3.78205 -0.14284,-0.5126 -0.25391,-1.30429 -0.25391,-1.80985 0,-1.08028 -0.10605,-1.28439 -0.48504,-0.93349 -0.33989,0.3147 -0.57798,1.5621 -0.7306,3.82783 -0.33213,4.93033 -0.4003,5.50871 -0.75404,6.39749 -0.64139,1.61154 -1.40849,2.09575 -2.04675,1.29198 -0.51516,-0.64876 -0.85081,-2.70584 -1.45775,-8.93403 -0.039,-0.40018 -0.1142,-0.72761 -0.16711,-0.72761 -0.0529,0 -0.2447,0.64075 -0.42618,1.42388 -0.48295,2.08396 -1.15061,3.16356 -1.38509,2.23967 -0.0426,-0.16786 -0.11415,-1.28551 -0.15899,-2.48365 -0.10046,-2.68415 -0.23556,-3.42471 -0.55004,-3.01484 -0.12173,0.15864 -0.2692,0.62291 -0.32772,1.03171 -0.10679,0.74604 -0.41626,1.06782 -1.02697,1.06782 -0.2727,0 -0.47915,0.67934 -0.47915,1.57665 0,0.49597 -0.34912,1.06918 -0.65119,1.06918 -0.21936,0 -0.43527,-0.90182 -0.43527,-1.81807 0,-1.11687 -0.15368,-1.62151 -0.4938,-1.62151 -0.36441,0 -0.55887,0.78486 -0.63849,2.57703 -0.0937,2.10774 -0.22215,3.01901 -0.68948,4.88973 -0.43046,1.72313 -1.01244,2.59099 -1.87248,2.79223 -0.94817,0.22187 -1.2088,-0.67314 -1.45876,-5.0095 -0.18738,-3.25073 -0.28785,-3.97599 -0.71483,-5.16028 -0.17556,-0.48693 -0.39735,-1.54003 -0.49287,-2.34022 -0.0983,-0.82312 -0.26154,-1.56942 -0.37601,-1.71862 -0.27329,-0.35618 -1.08579,-0.3372 -1.08579,0.0254 0,0.19118 -0.19315,0.2388 -0.57039,0.14061 -1.38342,-0.36009 -1.30428,-0.39888 -1.5528,0.76095 -0.12473,0.58208 -0.39335,1.33215 -0.59693,1.66681 -0.20358,0.33467 -0.40014,0.72663 -0.43678,0.87104 -0.044,0.17334 -0.22962,0.17106 -0.5463,-0.007 -0.78698,-0.44176 -0.799,-0.42538 -1.07261,1.46208 -0.26793,1.84828 -0.67999,3.28281 -0.94295,3.28281 -0.23251,0 -0.6671,1.2454 -0.74814,2.1439 -0.0866,0.96051 -0.51828,2.24365 -0.92858,2.76036 -0.16918,0.21306 -0.5667,0.38879 -0.88339,0.39052 -0.31668,0.002 -0.84469,0.17891 -1.17334,0.39373 -0.79944,0.52256 -1.29907,0.49636 -1.86844,-0.098 -0.5982,-0.62447 -0.72073,-1.27068 -0.84437,-4.45314 -0.0608,-1.56533 -0.16647,-2.75572 -0.28306,-3.18907 l -0.18604,-0.69144 -0.24906,0.70514 c -0.14687,0.41579 -0.27676,1.22288 -0.31657,1.96687 -0.15711,2.93648 -0.29333,3.84626 -0.73307,4.89593 -0.34485,0.82319 -0.49712,1.00967 -0.7714,0.94467 -0.43534,-0.10317 -0.56414,-0.75055 -0.70041,-3.52055 -0.13269,-2.69718 -0.35059,-3.94984 -0.80425,-4.62342 -0.1978,-0.29368 -0.29564,-0.53441 -0.21742,-0.53495 0.28586,-0.002 0.004,-0.50097 -0.52376,-0.92807 -0.29807,-0.24112 -0.54195,-0.60001 -0.54195,-0.79756 0,-0.19754 -0.22141,-0.74639 -0.49202,-1.21966 -0.27974,-0.48923 -0.52133,-1.15271 -0.55996,-1.53779 -0.0895,-0.892 -0.21436,-1.06528 -0.77125,-1.07013 -0.3144,-0.003 -0.48542,0.12457 -0.52769,0.39282 -0.0344,0.21828 -0.1931,0.39688 -0.35268,0.39688 -0.45261,0 -0.7356,0.64605 -0.81541,1.8615 -0.078,1.18765 -0.72199,5.25005 -0.99047,6.24791 -0.0924,0.34327 -0.34934,0.83214 -0.57107,1.0864 -0.23068,0.26452 -0.41884,0.68851 -0.43982,0.99104 -0.0202,0.29081 -0.30978,1.15383 -0.64361,1.9178 l -0.60696,1.38907 h -0.89963 c -0.4948,0 -0.92594,-0.1036 -0.95807,-0.23021 -0.0322,-0.12663 -0.34946,-0.49529 -0.70519,-0.81926 -0.39671,-0.3613 -0.62718,-0.71325 -0.59612,-0.91033 0.031,-0.19701 -0.21337,-0.57101 -0.63175,-0.9667 -0.59187,-0.55977 -0.6901,-0.75063 -0.7406,-1.43911 -0.0516,-0.70373 -0.0988,-0.78908 -0.41575,-0.75262 -0.36451,0.0419 -0.8113,1.05549 -1.36621,3.0993 -0.48653,1.79207 -2.31016,3.190357 -3.95435,3.03206 -0.88098,-0.0848 -0.91405,-0.11197 -1.26207,-1.03679 -0.19656,-0.52233 -0.4434,-1.5939 -0.54854,-2.38124 -0.23013,-1.72347 -0.64512,-3.15132 -0.91589,-3.15132 -0.1543,0 -0.21304,0.28034 -0.26724,1.27557 -0.10577,1.9416 -0.5793,3.54607 -1.29997,4.40472 -0.65729,0.78314 -1.07193,0.75356 -1.59199,-0.11359 -0.48483,-0.80839 -0.52085,-0.81593 -0.83385,-0.17454 -0.4276,0.87623 -1.01759,1.219187 -2.10031,1.220907 -1.15822,0.002 -1.53554,-0.260547 -2.07207,-1.440977 -0.46714,-1.02777 -0.93246,-1.23999 -1.04323,-0.47577 -0.14307,0.98725 -0.542,1.69219 -1.25687,2.220967 -0.60594,0.44822 -0.88705,0.51466 -1.52582,0.36063 -0.43066,-0.10384 -1.49809,-0.16474 -2.37205,-0.13533 -1.45593,0.049 -1.65946,-0.004 -2.42974,-0.634147 -0.46239,-0.3782 -0.92376,-0.68764 -1.02526,-0.68764 -0.1015,0 -0.62151,0.36037 -1.15558,0.800827 -1.85557,1.5303 -3.97687,2.25335 -5.37121,1.83077 z m -7.29252,-15.306027 c 0.21088,-0.32529 0.0513,-0.81928 -0.26478,-0.81928 -0.19278,0 -0.26522,0.14452 -0.26522,0.52916 0,0.56016 0.26196,0.70356 0.53,0.29012 z"
       id="path134"
       sodipodi:nodetypes="cssccsssssssscssssssssssssssssscssssssssscsssscssssscssssccccssssssscsssssssssssssssssssssssssssssssssssssssssssssssssssscsssssssssssssssssssssscsssssssssssscsssssssssssssssssssssssssssssssssssssssssssssssssssssssssscsssscsssscssssssssssscssssssscsssssssssssssssscssssssssccssss"
       inkscape:export-xdpi="80"
       inkscape:export-ydpi="80" />
    <ellipse
       style="fill:#ececec;stroke:none;stroke-width:0.108078"
       id="ellipse959"
       transform="matrix(0.74881097,0.66278363,-0.75533875,0.65533455,0,0)"
       cx="-304.02893"
       cy="132.67357"
       rx="9.3598928"
       ry="12.610793"
       inkscape:export-xdpi="80"
       inkscape:export-ydpi="80" />
    <ellipse
       style="fill:#999999;stroke:none;stroke-width:0.0988631"
       id="ellipse961"
       cx="-330.49133"
       cy="39.277725"
       rx="2.3724527"
       ry="13.282268"
       transform="matrix(0.90429277,0.42691286,-0.73531954,0.67772057,0,0)"
       inkscape:export-xdpi="80"
       inkscape:export-ydpi="80" />
    <ellipse
       style="fill:#999999;stroke:none;stroke-width:0.0527895"
       id="ellipse963"
       cx="-309.84055"
       cy="86.684227"
       rx="1.7792571"
       ry="9.1764555"
       transform="matrix(0.83700737,0.54719162,-0.73361292,0.67956757,0,0)"
       inkscape:export-xdpi="80"
       inkscape:export-ydpi="80" />
    <ellipse
       style="fill:#999999;stroke:none;stroke-width:0.0527895"
       id="ellipse965"
       cx="-322.52554"
       cy="85.229912"
       rx="1.7792571"
       ry="9.1764555"
       transform="matrix(0.83700737,0.54719162,-0.73361292,0.67956757,0,0)"
       inkscape:export-xdpi="80"
       inkscape:export-ydpi="80" />
  </g>
</svg>
